<?xml version="1.0" standalone="no"?>
 <!DOCTYPE svg PUBLIC "-//W3C//DTD SVG 1.1//EN" 
 "http://www.w3.org/Graphics/SVG/1.1/DTD/svg11.dtd"> 
<svg xmlns="http://www.w3.org/2000/svg" version="1.1" 
    width="29.7002cm" height="21.0007cm" viewBox="0 0 116930 82680 ">
<title>SVG Picture created as Ground Station-brd.svg date 2016/05/05 16:30:21 </title>
  <desc>Picture generated by PCBNEW </desc>
<g style="fill:#000000; fill-opacity:1;stroke:#000000; stroke-opacity:1;
stroke-linecap:round; stroke-linejoin:round; "
 transform="translate(0 0) scale(1 1)">
</g>
<g style="fill:#000000; fill-opacity:0.0; 
stroke:#000000; stroke-width:-0.000393701; stroke-opacity:1; 
stroke-linecap:round; stroke-linejoin:round;">
</g>
<g style="fill:#000000; fill-opacity:0.0; 
stroke:#000000; stroke-width:39.3701; stroke-opacity:1; 
stroke-linecap:round; stroke-linejoin:round;">
</g>
<g style="fill:#000000; fill-opacity:0.0; 
stroke:#000000; stroke-width:59.0551; stroke-opacity:1; 
stroke-linecap:round; stroke-linejoin:round;">
<rect x="69685.9" y="65357.2" width="42519.7" height="12598.4" rx="0" />
</g>
<g style="fill:#000000; fill-opacity:0.0; 
stroke:#000000; stroke-width:39.3701; stroke-opacity:1; 
stroke-linecap:round; stroke-linejoin:round;">
</g>
<g style="fill:#000000; fill-opacity:0.0; 
stroke:#000000; stroke-width:59.0551; stroke-opacity:1; 
stroke-linecap:round; stroke-linejoin:round;">
<rect x="3937.01" y="3937.01" width="109056" height="74806" rx="0" />
</g>
<g style="fill:#000000; fill-opacity:0.0; 
stroke:#000000; stroke-width:39.3701; stroke-opacity:1; 
stroke-linecap:round; stroke-linejoin:round;">
</g>
<g style="fill:#000000; fill-opacity:0.0; 
stroke:#000000; stroke-width:59.0551; stroke-opacity:1; 
stroke-linecap:round; stroke-linejoin:round;">
<rect x="4724.41" y="4724.41" width="107481" height="73231.2" rx="0" />
</g>
<g style="fill:#000000; fill-opacity:0.0; 
stroke:#000000; stroke-width:39.3701; stroke-opacity:1; 
stroke-linecap:round; stroke-linejoin:round;">
</g>
<g style="fill:#000000; fill-opacity:0.0; 
stroke:#000000; stroke-width:59.0551; stroke-opacity:1; 
stroke-linecap:round; stroke-linejoin:round;">
<path d="M23622 4724
L23622 3937
" />
</g>
<g style="fill:#000000; fill-opacity:0.0; 
stroke:#000000; stroke-width:39.3701; stroke-opacity:1; 
stroke-linecap:round; stroke-linejoin:round;">
</g>
<g style="fill:#000000; fill-opacity:0.0; 
stroke:#000000; stroke-width:59.0551; stroke-opacity:1; 
stroke-linecap:round; stroke-linejoin:round;">
<path d="M43307 4724
L43307 3937
" />
</g>
<g style="fill:#000000; fill-opacity:0.0; 
stroke:#000000; stroke-width:39.3701; stroke-opacity:1; 
stroke-linecap:round; stroke-linejoin:round;">
</g>
<g style="fill:#000000; fill-opacity:0.0; 
stroke:#000000; stroke-width:59.0551; stroke-opacity:1; 
stroke-linecap:round; stroke-linejoin:round;">
<path d="M62992 4724
L62992 3937
" />
</g>
<g style="fill:#000000; fill-opacity:0.0; 
stroke:#000000; stroke-width:39.3701; stroke-opacity:1; 
stroke-linecap:round; stroke-linejoin:round;">
</g>
<g style="fill:#000000; fill-opacity:0.0; 
stroke:#000000; stroke-width:59.0551; stroke-opacity:1; 
stroke-linecap:round; stroke-linejoin:round;">
<path d="M82677 4724
L82677 3937
" />
</g>
<g style="fill:#000000; fill-opacity:0.0; 
stroke:#000000; stroke-width:39.3701; stroke-opacity:1; 
stroke-linecap:round; stroke-linejoin:round;">
</g>
<g style="fill:#000000; fill-opacity:0.0; 
stroke:#000000; stroke-width:59.0551; stroke-opacity:1; 
stroke-linecap:round; stroke-linejoin:round;">
<path d="M102362 4724
L102362 3937
" />
</g>
<g style="fill:#000000; fill-opacity:0.0; 
stroke:#000000; stroke-width:39.3701; stroke-opacity:1; 
stroke-linecap:round; stroke-linejoin:round;">
</g>
<g style="fill:#000000; fill-opacity:0.0; 
stroke:#000000; stroke-width:59.0551; stroke-opacity:1; 
stroke-linecap:round; stroke-linejoin:round;">
<path d="M14169 4562
L13877 4562
" />
<path d="M14023 4562
L14023 4050
L13974 4123
L13925 4172
L13877 4196
" />
</g>
<g style="fill:#000000; fill-opacity:0.0; 
stroke:#000000; stroke-width:39.3701; stroke-opacity:1; 
stroke-linecap:round; stroke-linejoin:round;">
</g>
<g style="fill:#000000; fill-opacity:0.0; 
stroke:#000000; stroke-width:59.0551; stroke-opacity:1; 
stroke-linecap:round; stroke-linejoin:round;">
<path d="M33562 4099
L33586 4074
L33635 4050
L33757 4050
L33805 4074
L33830 4099
L33854 4147
L33854 4196
L33830 4269
L33537 4562
L33854 4562
" />
</g>
<g style="fill:#000000; fill-opacity:0.0; 
stroke:#000000; stroke-width:39.3701; stroke-opacity:1; 
stroke-linecap:round; stroke-linejoin:round;">
</g>
<g style="fill:#000000; fill-opacity:0.0; 
stroke:#000000; stroke-width:59.0551; stroke-opacity:1; 
stroke-linecap:round; stroke-linejoin:round;">
<path d="M53222 4050
L53539 4050
L53368 4245
L53442 4245
L53490 4269
L53515 4294
L53539 4342
L53539 4464
L53515 4513
L53490 4537
L53442 4562
L53295 4562
L53247 4537
L53222 4513
" />
</g>
<g style="fill:#000000; fill-opacity:0.0; 
stroke:#000000; stroke-width:39.3701; stroke-opacity:1; 
stroke-linecap:round; stroke-linejoin:round;">
</g>
<g style="fill:#000000; fill-opacity:0.0; 
stroke:#000000; stroke-width:59.0551; stroke-opacity:1; 
stroke-linecap:round; stroke-linejoin:round;">
<path d="M73175 4221
L73175 4562
" />
<path d="M73053 4026
L72932 4391
L73248 4391
" />
</g>
<g style="fill:#000000; fill-opacity:0.0; 
stroke:#000000; stroke-width:39.3701; stroke-opacity:1; 
stroke-linecap:round; stroke-linejoin:round;">
</g>
<g style="fill:#000000; fill-opacity:0.0; 
stroke:#000000; stroke-width:59.0551; stroke-opacity:1; 
stroke-linecap:round; stroke-linejoin:round;">
<path d="M92885 4050
L92641 4050
L92617 4294
L92641 4269
L92690 4245
L92812 4245
L92860 4269
L92885 4294
L92909 4342
L92909 4464
L92885 4513
L92860 4537
L92812 4562
L92690 4562
L92641 4537
L92617 4513
" />
</g>
<g style="fill:#000000; fill-opacity:0.0; 
stroke:#000000; stroke-width:39.3701; stroke-opacity:1; 
stroke-linecap:round; stroke-linejoin:round;">
</g>
<g style="fill:#000000; fill-opacity:0.0; 
stroke:#000000; stroke-width:59.0551; stroke-opacity:1; 
stroke-linecap:round; stroke-linejoin:round;">
<path d="M112545 4050
L112448 4050
L112399 4074
L112375 4099
L112326 4172
L112302 4269
L112302 4464
L112326 4513
L112350 4537
L112399 4562
L112497 4562
L112545 4537
L112570 4513
L112594 4464
L112594 4342
L112570 4294
L112545 4269
L112497 4245
L112399 4245
L112350 4269
L112326 4294
L112302 4342
" />
</g>
<g style="fill:#000000; fill-opacity:0.0; 
stroke:#000000; stroke-width:39.3701; stroke-opacity:1; 
stroke-linecap:round; stroke-linejoin:round;">
</g>
<g style="fill:#000000; fill-opacity:0.0; 
stroke:#000000; stroke-width:59.0551; stroke-opacity:1; 
stroke-linecap:round; stroke-linejoin:round;">
<path d="M23622 77955
L23622 78742
" />
</g>
<g style="fill:#000000; fill-opacity:0.0; 
stroke:#000000; stroke-width:39.3701; stroke-opacity:1; 
stroke-linecap:round; stroke-linejoin:round;">
</g>
<g style="fill:#000000; fill-opacity:0.0; 
stroke:#000000; stroke-width:59.0551; stroke-opacity:1; 
stroke-linecap:round; stroke-linejoin:round;">
<path d="M43307 77955
L43307 78742
" />
</g>
<g style="fill:#000000; fill-opacity:0.0; 
stroke:#000000; stroke-width:39.3701; stroke-opacity:1; 
stroke-linecap:round; stroke-linejoin:round;">
</g>
<g style="fill:#000000; fill-opacity:0.0; 
stroke:#000000; stroke-width:59.0551; stroke-opacity:1; 
stroke-linecap:round; stroke-linejoin:round;">
<path d="M62992 77955
L62992 78742
" />
</g>
<g style="fill:#000000; fill-opacity:0.0; 
stroke:#000000; stroke-width:39.3701; stroke-opacity:1; 
stroke-linecap:round; stroke-linejoin:round;">
</g>
<g style="fill:#000000; fill-opacity:0.0; 
stroke:#000000; stroke-width:59.0551; stroke-opacity:1; 
stroke-linecap:round; stroke-linejoin:round;">
<path d="M82677 77955
L82677 78742
" />
</g>
<g style="fill:#000000; fill-opacity:0.0; 
stroke:#000000; stroke-width:39.3701; stroke-opacity:1; 
stroke-linecap:round; stroke-linejoin:round;">
</g>
<g style="fill:#000000; fill-opacity:0.0; 
stroke:#000000; stroke-width:59.0551; stroke-opacity:1; 
stroke-linecap:round; stroke-linejoin:round;">
<path d="M102362 77955
L102362 78742
" />
</g>
<g style="fill:#000000; fill-opacity:0.0; 
stroke:#000000; stroke-width:39.3701; stroke-opacity:1; 
stroke-linecap:round; stroke-linejoin:round;">
</g>
<g style="fill:#000000; fill-opacity:0.0; 
stroke:#000000; stroke-width:59.0551; stroke-opacity:1; 
stroke-linecap:round; stroke-linejoin:round;">
<path d="M14169 78580
L13877 78580
" />
<path d="M14023 78580
L14023 78069
L13974 78142
L13925 78190
L13877 78215
" />
</g>
<g style="fill:#000000; fill-opacity:0.0; 
stroke:#000000; stroke-width:39.3701; stroke-opacity:1; 
stroke-linecap:round; stroke-linejoin:round;">
</g>
<g style="fill:#000000; fill-opacity:0.0; 
stroke:#000000; stroke-width:59.0551; stroke-opacity:1; 
stroke-linecap:round; stroke-linejoin:round;">
<path d="M33562 78117
L33586 78093
L33635 78069
L33757 78069
L33805 78093
L33830 78117
L33854 78166
L33854 78215
L33830 78288
L33537 78580
L33854 78580
" />
</g>
<g style="fill:#000000; fill-opacity:0.0; 
stroke:#000000; stroke-width:39.3701; stroke-opacity:1; 
stroke-linecap:round; stroke-linejoin:round;">
</g>
<g style="fill:#000000; fill-opacity:0.0; 
stroke:#000000; stroke-width:59.0551; stroke-opacity:1; 
stroke-linecap:round; stroke-linejoin:round;">
<path d="M53222 78069
L53539 78069
L53368 78263
L53442 78263
L53490 78288
L53515 78312
L53539 78361
L53539 78483
L53515 78532
L53490 78556
L53442 78580
L53295 78580
L53247 78556
L53222 78532
" />
</g>
<g style="fill:#000000; fill-opacity:0.0; 
stroke:#000000; stroke-width:39.3701; stroke-opacity:1; 
stroke-linecap:round; stroke-linejoin:round;">
</g>
<g style="fill:#000000; fill-opacity:0.0; 
stroke:#000000; stroke-width:59.0551; stroke-opacity:1; 
stroke-linecap:round; stroke-linejoin:round;">
<path d="M73175 78239
L73175 78580
" />
<path d="M73053 78044
L72932 78410
L73248 78410
" />
</g>
<g style="fill:#000000; fill-opacity:0.0; 
stroke:#000000; stroke-width:39.3701; stroke-opacity:1; 
stroke-linecap:round; stroke-linejoin:round;">
</g>
<g style="fill:#000000; fill-opacity:0.0; 
stroke:#000000; stroke-width:59.0551; stroke-opacity:1; 
stroke-linecap:round; stroke-linejoin:round;">
<path d="M92885 78069
L92641 78069
L92617 78312
L92641 78288
L92690 78263
L92812 78263
L92860 78288
L92885 78312
L92909 78361
L92909 78483
L92885 78532
L92860 78556
L92812 78580
L92690 78580
L92641 78556
L92617 78532
" />
</g>
<g style="fill:#000000; fill-opacity:0.0; 
stroke:#000000; stroke-width:39.3701; stroke-opacity:1; 
stroke-linecap:round; stroke-linejoin:round;">
</g>
<g style="fill:#000000; fill-opacity:0.0; 
stroke:#000000; stroke-width:59.0551; stroke-opacity:1; 
stroke-linecap:round; stroke-linejoin:round;">
<path d="M112545 78069
L112448 78069
L112399 78093
L112375 78117
L112326 78190
L112302 78288
L112302 78483
L112326 78532
L112350 78556
L112399 78580
L112497 78580
L112545 78556
L112570 78532
L112594 78483
L112594 78361
L112570 78312
L112545 78288
L112497 78263
L112399 78263
L112350 78288
L112326 78312
L112302 78361
" />
</g>
<g style="fill:#000000; fill-opacity:0.0; 
stroke:#000000; stroke-width:39.3701; stroke-opacity:1; 
stroke-linecap:round; stroke-linejoin:round;">
</g>
<g style="fill:#000000; fill-opacity:0.0; 
stroke:#000000; stroke-width:59.0551; stroke-opacity:1; 
stroke-linecap:round; stroke-linejoin:round;">
<path d="M3937 23622
L4724 23622
" />
</g>
<g style="fill:#000000; fill-opacity:0.0; 
stroke:#000000; stroke-width:39.3701; stroke-opacity:1; 
stroke-linecap:round; stroke-linejoin:round;">
</g>
<g style="fill:#000000; fill-opacity:0.0; 
stroke:#000000; stroke-width:59.0551; stroke-opacity:1; 
stroke-linecap:round; stroke-linejoin:round;">
<path d="M3937 43307
L4724 43307
" />
</g>
<g style="fill:#000000; fill-opacity:0.0; 
stroke:#000000; stroke-width:39.3701; stroke-opacity:1; 
stroke-linecap:round; stroke-linejoin:round;">
</g>
<g style="fill:#000000; fill-opacity:0.0; 
stroke:#000000; stroke-width:59.0551; stroke-opacity:1; 
stroke-linecap:round; stroke-linejoin:round;">
<path d="M3937 62992
L4724 62992
" />
</g>
<g style="fill:#000000; fill-opacity:0.0; 
stroke:#000000; stroke-width:39.3701; stroke-opacity:1; 
stroke-linecap:round; stroke-linejoin:round;">
</g>
<g style="fill:#000000; fill-opacity:0.0; 
stroke:#000000; stroke-width:59.0551; stroke-opacity:1; 
stroke-linecap:round; stroke-linejoin:round;">
<path d="M4208 13864
L4452 13864
" />
<path d="M4160 14011
L4330 13499
L4501 14011
" />
</g>
<g style="fill:#000000; fill-opacity:0.0; 
stroke:#000000; stroke-width:39.3701; stroke-opacity:1; 
stroke-linecap:round; stroke-linejoin:round;">
</g>
<g style="fill:#000000; fill-opacity:0.0; 
stroke:#000000; stroke-width:59.0551; stroke-opacity:1; 
stroke-linecap:round; stroke-linejoin:round;">
<path d="M4367 33428
L4440 33452
L4464 33476
L4489 33525
L4489 33598
L4464 33647
L4440 33671
L4391 33696
L4196 33696
L4196 33184
L4367 33184
L4416 33208
L4440 33233
L4464 33281
L4464 33330
L4440 33379
L4416 33403
L4367 33428
L4196 33428
" />
</g>
<g style="fill:#000000; fill-opacity:0.0; 
stroke:#000000; stroke-width:39.3701; stroke-opacity:1; 
stroke-linecap:round; stroke-linejoin:round;">
</g>
<g style="fill:#000000; fill-opacity:0.0; 
stroke:#000000; stroke-width:59.0551; stroke-opacity:1; 
stroke-linecap:round; stroke-linejoin:round;">
<path d="M4489 53332
L4464 53356
L4391 53381
L4342 53381
L4269 53356
L4221 53308
L4196 53259
L4172 53161
L4172 53088
L4196 52991
L4221 52942
L4269 52893
L4342 52869
L4391 52869
L4464 52893
L4489 52918
" />
</g>
<g style="fill:#000000; fill-opacity:0.0; 
stroke:#000000; stroke-width:39.3701; stroke-opacity:1; 
stroke-linecap:round; stroke-linejoin:round;">
</g>
<g style="fill:#000000; fill-opacity:0.0; 
stroke:#000000; stroke-width:59.0551; stroke-opacity:1; 
stroke-linecap:round; stroke-linejoin:round;">
<path d="M4196 73066
L4196 72554
L4318 72554
L4391 72578
L4440 72627
L4464 72676
L4489 72773
L4489 72846
L4464 72944
L4440 72993
L4391 73041
L4318 73066
L4196 73066
" />
</g>
<g style="fill:#000000; fill-opacity:0.0; 
stroke:#000000; stroke-width:39.3701; stroke-opacity:1; 
stroke-linecap:round; stroke-linejoin:round;">
</g>
<g style="fill:#000000; fill-opacity:0.0; 
stroke:#000000; stroke-width:59.0551; stroke-opacity:1; 
stroke-linecap:round; stroke-linejoin:round;">
<path d="M112992 23622
L112205 23622
" />
</g>
<g style="fill:#000000; fill-opacity:0.0; 
stroke:#000000; stroke-width:39.3701; stroke-opacity:1; 
stroke-linecap:round; stroke-linejoin:round;">
</g>
<g style="fill:#000000; fill-opacity:0.0; 
stroke:#000000; stroke-width:59.0551; stroke-opacity:1; 
stroke-linecap:round; stroke-linejoin:round;">
<path d="M112992 43307
L112205 43307
" />
</g>
<g style="fill:#000000; fill-opacity:0.0; 
stroke:#000000; stroke-width:39.3701; stroke-opacity:1; 
stroke-linecap:round; stroke-linejoin:round;">
</g>
<g style="fill:#000000; fill-opacity:0.0; 
stroke:#000000; stroke-width:59.0551; stroke-opacity:1; 
stroke-linecap:round; stroke-linejoin:round;">
<path d="M112992 62992
L112205 62992
" />
</g>
<g style="fill:#000000; fill-opacity:0.0; 
stroke:#000000; stroke-width:39.3701; stroke-opacity:1; 
stroke-linecap:round; stroke-linejoin:round;">
</g>
<g style="fill:#000000; fill-opacity:0.0; 
stroke:#000000; stroke-width:59.0551; stroke-opacity:1; 
stroke-linecap:round; stroke-linejoin:round;">
<path d="M112477 13864
L112721 13864
" />
<path d="M112428 14011
L112599 13499
L112769 14011
" />
</g>
<g style="fill:#000000; fill-opacity:0.0; 
stroke:#000000; stroke-width:39.3701; stroke-opacity:1; 
stroke-linecap:round; stroke-linejoin:round;">
</g>
<g style="fill:#000000; fill-opacity:0.0; 
stroke:#000000; stroke-width:59.0551; stroke-opacity:1; 
stroke-linecap:round; stroke-linejoin:round;">
<path d="M112635 33428
L112708 33452
L112733 33476
L112757 33525
L112757 33598
L112733 33647
L112708 33671
L112660 33696
L112465 33696
L112465 33184
L112635 33184
L112684 33208
L112708 33233
L112733 33281
L112733 33330
L112708 33379
L112684 33403
L112635 33428
L112465 33428
" />
</g>
<g style="fill:#000000; fill-opacity:0.0; 
stroke:#000000; stroke-width:39.3701; stroke-opacity:1; 
stroke-linecap:round; stroke-linejoin:round;">
</g>
<g style="fill:#000000; fill-opacity:0.0; 
stroke:#000000; stroke-width:59.0551; stroke-opacity:1; 
stroke-linecap:round; stroke-linejoin:round;">
<path d="M112757 53332
L112733 53356
L112660 53381
L112611 53381
L112538 53356
L112489 53308
L112465 53259
L112440 53161
L112440 53088
L112465 52991
L112489 52942
L112538 52893
L112611 52869
L112660 52869
L112733 52893
L112757 52918
" />
</g>
<g style="fill:#000000; fill-opacity:0.0; 
stroke:#000000; stroke-width:39.3701; stroke-opacity:1; 
stroke-linecap:round; stroke-linejoin:round;">
</g>
<g style="fill:#000000; fill-opacity:0.0; 
stroke:#000000; stroke-width:59.0551; stroke-opacity:1; 
stroke-linecap:round; stroke-linejoin:round;">
<path d="M112465 73066
L112465 72554
L112587 72554
L112660 72578
L112708 72627
L112733 72676
L112757 72773
L112757 72846
L112733 72944
L112708 72993
L112660 73041
L112587 73066
L112465 73066
" />
</g>
<g style="fill:#000000; fill-opacity:0.0; 
stroke:#000000; stroke-width:39.3701; stroke-opacity:1; 
stroke-linecap:round; stroke-linejoin:round;">
</g>
<g style="fill:#000000; fill-opacity:0.0; 
stroke:#000000; stroke-width:59.0551; stroke-opacity:1; 
stroke-linecap:round; stroke-linejoin:round;">
<path d="M78881 76293
L78881 75703
L79022 75703
L79106 75731
L79162 75787
L79190 75843
L79219 75956
L79219 76040
L79190 76153
L79162 76209
L79106 76265
L79022 76293
L78881 76293
" />
<path d="M79725 76293
L79725 75984
L79697 75928
L79640 75899
L79528 75899
L79472 75928
" />
<path d="M79725 76265
L79669 76293
L79528 76293
L79472 76265
L79444 76209
L79444 76153
L79472 76096
L79528 76068
L79669 76068
L79725 76040
" />
<path d="M79922 75899
L80147 75899
" />
<path d="M80006 75703
L80006 76209
L80034 76265
L80090 76293
L80147 76293
" />
<path d="M80568 76265
L80512 76293
L80400 76293
L80343 76265
L80315 76209
L80315 75984
L80343 75928
L80400 75899
L80512 75899
L80568 75928
L80597 75984
L80597 76040
L80315 76096
" />
<path d="M80850 76237
L80878 76265
L80850 76293
L80822 76265
L80850 76237
L80850 76293
" />
<path d="M80850 75928
L80878 75956
L80850 75984
L80822 75956
L80850 75928
L80850 75984
" />
</g>
<g style="fill:#000000; fill-opacity:0.0; 
stroke:#000000; stroke-width:39.3701; stroke-opacity:1; 
stroke-linecap:round; stroke-linejoin:round;">
</g>
<g style="fill:#000000; fill-opacity:0.0; 
stroke:#000000; stroke-width:59.0551; stroke-opacity:1; 
stroke-linecap:round; stroke-linejoin:round;">
<path d="M69685 76577
L112205 76577
" />
</g>
<g style="fill:#000000; fill-opacity:0.0; 
stroke:#000000; stroke-width:39.3701; stroke-opacity:1; 
stroke-linecap:round; stroke-linejoin:round;">
</g>
<g style="fill:#000000; fill-opacity:0.0; 
stroke:#000000; stroke-width:59.0551; stroke-opacity:1; 
stroke-linecap:round; stroke-linejoin:round;">
<path d="M70220 77395
L70220 76805
" />
<path d="M70557 77395
L70304 77058
" />
<path d="M70557 76805
L70220 77142
" />
<path d="M70810 77395
L70810 77002
" />
<path d="M70810 76805
L70782 76833
L70810 76861
L70838 76833
L70810 76805
L70810 76861
" />
<path d="M71429 77339
L71401 77367
L71316 77395
L71260 77395
L71176 77367
L71120 77311
L71091 77255
L71063 77142
L71063 77058
L71091 76946
L71120 76889
L71176 76833
L71260 76805
L71316 76805
L71401 76833
L71429 76861
" />
<path d="M71935 77395
L71935 77086
L71907 77030
L71851 77002
L71738 77002
L71682 77030
" />
<path d="M71935 77367
L71879 77395
L71738 77395
L71682 77367
L71654 77311
L71654 77255
L71682 77199
L71738 77171
L71879 77171
L71935 77142
" />
<path d="M72469 77395
L72469 76805
" />
<path d="M72469 77367
L72413 77395
L72301 77395
L72244 77367
L72216 77339
L72188 77283
L72188 77114
L72216 77058
L72244 77030
L72301 77002
L72413 77002
L72469 77030
" />
<path d="M73201 77086
L73397 77086
" />
<path d="M73482 77395
L73201 77395
L73201 76805
L73482 76805
" />
<path d="M73735 77339
L73763 77367
L73735 77395
L73707 77367
L73735 77339
L73735 77395
" />
<path d="M74016 77395
L74016 76805
L74157 76805
L74241 76833
L74297 76889
L74325 76946
L74354 77058
L74354 77142
L74325 77255
L74297 77311
L74241 77367
L74157 77395
L74016 77395
" />
<path d="M74607 77339
L74635 77367
L74607 77395
L74579 77367
L74607 77339
L74607 77395
" />
<path d="M74860 77227
L75141 77227
" />
<path d="M74804 77395
L75000 76805
L75197 77395
" />
<path d="M75394 77339
L75422 77367
L75394 77395
L75366 77367
L75394 77339
L75394 77395
" />
<path d="M76575 77395
L76575 76805
" />
<path d="M76631 77171
L76800 77395
" />
<path d="M76800 77002
L76575 77227
" />
<path d="M77053 77395
L77053 77002
" />
<path d="M77053 76805
L77025 76833
L77053 76861
L77081 76833
L77053 76805
L77053 76861
" />
<path d="M77588 77367
L77531 77395
L77419 77395
L77363 77367
L77334 77339
L77306 77283
L77306 77114
L77334 77058
L77363 77030
L77419 77002
L77531 77002
L77588 77030
" />
<path d="M78094 77395
L78094 77086
L78066 77030
L78009 77002
L77897 77002
L77841 77030
" />
<path d="M78094 77367
L78037 77395
L77897 77395
L77841 77367
L77813 77311
L77813 77255
L77841 77199
L77897 77171
L78037 77171
L78094 77142
" />
<path d="M78628 77395
L78628 76805
" />
<path d="M78628 77367
L78572 77395
L78459 77395
L78403 77367
L78375 77339
L78347 77283
L78347 77114
L78375 77058
L78403 77030
L78459 77002
L78572 77002
L78628 77030
" />
<path d="M79612 77002
L79612 77395
" />
<path d="M79472 76777
L79331 77199
L79697 77199
" />
<path d="M79922 77339
L79950 77367
L79922 77395
L79894 77367
L79922 77339
L79922 77395
" />
<path d="M80315 76805
L80372 76805
L80428 76833
L80456 76861
L80484 76917
L80512 77030
L80512 77171
L80484 77283
L80456 77339
L80428 77367
L80372 77395
L80315 77395
L80259 77367
L80231 77339
L80203 77283
L80175 77171
L80175 77030
L80203 76917
L80231 76861
L80259 76833
L80315 76805
" />
<path d="M80765 77339
L80793 77367
L80765 77395
L80737 77367
L80765 77339
L80765 77395
" />
<path d="M81018 76861
L81046 76833
L81103 76805
L81243 76805
L81300 76833
L81328 76861
L81356 76917
L81356 76974
L81328 77058
L80990 77395
L81356 77395
" />
<path d="M81609 77171
L82059 77171
" />
<path d="M82593 77002
L82593 77395
" />
<path d="M82453 76777
L82312 77199
L82678 77199
" />
<path d="M82903 77171
L83352 77171
" />
<path d="M83127 77395
L83127 76946
" />
<path d="M83887 76805
L83774 76805
L83718 76833
L83690 76861
L83634 76946
L83606 77058
L83606 77283
L83634 77339
L83662 77367
L83718 77395
L83831 77395
L83887 77367
L83915 77339
L83943 77283
L83943 77142
L83915 77086
L83887 77058
L83831 77030
L83718 77030
L83662 77058
L83634 77086
L83606 77142
" />
<path d="M84168 76861
L84196 76833
L84252 76805
L84393 76805
L84449 76833
L84477 76861
L84505 76917
L84505 76974
L84477 77058
L84140 77395
L84505 77395
" />
<path d="M84730 76861
L84759 76833
L84815 76805
L84955 76805
L85012 76833
L85040 76861
L85068 76917
L85068 76974
L85040 77058
L84702 77395
L85068 77395
" />
<path d="M85602 76805
L85321 76805
L85293 77086
L85321 77058
L85377 77030
L85518 77030
L85574 77058
L85602 77086
L85630 77142
L85630 77283
L85602 77339
L85574 77367
L85518 77395
L85377 77395
L85321 77367
L85293 77339
" />
<path d="M85827 76805
L86193 76805
L85996 77030
L86080 77030
L86136 77058
L86165 77086
L86193 77142
L86193 77283
L86165 77339
L86136 77367
L86080 77395
L85912 77395
L85855 77367
L85827 77339
" />
<path d="M86530 77058
L86474 77030
L86446 77002
L86418 76946
L86418 76917
L86446 76861
L86474 76833
L86530 76805
L86643 76805
L86699 76833
L86727 76861
L86755 76917
L86755 76946
L86727 77002
L86699 77030
L86643 77058
L86530 77058
L86474 77086
L86446 77114
L86418 77171
L86418 77283
L86446 77339
L86474 77367
L86530 77395
L86643 77395
L86699 77367
L86727 77339
L86755 77283
L86755 77171
L86727 77114
L86699 77086
L86643 77058
" />
<path d="M85743 76703
L86868 76703
" />
<path d="M87261 77002
L87261 77395
" />
<path d="M87008 77002
L87008 77311
L87036 77367
L87093 77395
L87177 77395
L87233 77367
L87261 77339
" />
<path d="M87543 77395
L87543 76805
" />
<path d="M87543 77030
L87599 77002
L87711 77002
L87768 77030
L87796 77058
L87824 77114
L87824 77283
L87796 77339
L87768 77367
L87711 77395
L87599 77395
L87543 77367
" />
<path d="M88330 77002
L88330 77395
" />
<path d="M88077 77002
L88077 77311
L88105 77367
L88161 77395
L88246 77395
L88302 77367
L88330 77339
" />
<path d="M88611 77002
L88611 77395
" />
<path d="M88611 77058
L88639 77030
L88696 77002
L88780 77002
L88836 77030
L88864 77086
L88864 77395
" />
<path d="M89061 77002
L89286 77002
" />
<path d="M89145 76805
L89145 77311
L89174 77367
L89230 77395
L89286 77395
" />
<path d="M89736 77002
L89736 77395
" />
<path d="M89483 77002
L89483 77311
L89511 77367
L89567 77395
L89652 77395
L89708 77367
L89736 77339
" />
<path d="M90327 77395
L89989 77395
" />
<path d="M90158 77395
L90158 76805
L90102 76889
L90045 76946
L89989 76974
" />
<path d="M90833 77002
L90833 77395
" />
<path d="M90692 76777
L90552 77199
L90917 77199
" />
<path d="M91142 77339
L91170 77367
L91142 77395
L91114 77367
L91142 77339
L91142 77395
" />
<path d="M91536 76805
L91592 76805
L91648 76833
L91676 76861
L91705 76917
L91733 77030
L91733 77171
L91705 77283
L91676 77339
L91648 77367
L91592 77395
L91536 77395
L91480 77367
L91451 77339
L91423 77283
L91395 77171
L91395 77030
L91423 76917
L91451 76861
L91480 76833
L91536 76805
" />
<path d="M92239 77002
L92239 77395
" />
<path d="M92098 76777
L91958 77199
L92323 77199
" />
<path d="M92548 77339
L92576 77367
L92548 77395
L92520 77367
L92548 77339
L92548 77395
" />
<path d="M93139 77395
L92801 77395
" />
<path d="M92970 77395
L92970 76805
L92914 76889
L92858 76946
L92801 76974
" />
<path d="M93392 77171
L93842 77171
" />
<path d="M94095 77367
L94151 77395
L94264 77395
L94320 77367
L94348 77311
L94348 77283
L94320 77227
L94264 77199
L94179 77199
L94123 77171
L94095 77114
L94095 77086
L94123 77030
L94179 77002
L94264 77002
L94320 77030
" />
<path d="M94517 77002
L94742 77002
" />
<path d="M94601 76805
L94601 77311
L94629 77367
L94685 77395
L94742 77395
" />
<path d="M95192 77395
L95192 77086
L95163 77030
L95107 77002
L94995 77002
L94938 77030
" />
<path d="M95192 77367
L95135 77395
L94995 77395
L94938 77367
L94910 77311
L94910 77255
L94938 77199
L94995 77171
L95135 77171
L95192 77142
" />
<path d="M95473 77395
L95473 76805
" />
<path d="M95473 77030
L95529 77002
L95642 77002
L95698 77030
L95726 77058
L95754 77114
L95754 77283
L95726 77339
L95698 77367
L95642 77395
L95529 77395
L95473 77367
" />
<path d="M96091 77395
L96035 77367
L96007 77311
L96007 76805
" />
<path d="M96541 77367
L96485 77395
L96373 77395
L96316 77367
L96288 77311
L96288 77086
L96316 77030
L96373 77002
L96485 77002
L96541 77030
L96570 77086
L96570 77142
L96288 77199
" />
</g>
<g style="fill:#000000; fill-opacity:0.0; 
stroke:#000000; stroke-width:39.3701; stroke-opacity:1; 
stroke-linecap:round; stroke-linejoin:round;">
</g>
<g style="fill:#000000; fill-opacity:0.0; 
stroke:#000000; stroke-width:59.0551; stroke-opacity:1; 
stroke-linecap:round; stroke-linejoin:round;">
<path d="M69685 75396
L112205 75396
" />
</g>
<g style="fill:#000000; fill-opacity:0.0; 
stroke:#000000; stroke-width:39.3701; stroke-opacity:1; 
stroke-linecap:round; stroke-linejoin:round;">
</g>
<g style="fill:#000000; fill-opacity:0.0; 
stroke:#000000; stroke-width:118.11; stroke-opacity:1; 
stroke-linecap:round; stroke-linejoin:round;">
<path d="M104022 76293
L103825 76012
" />
<path d="M103684 76293
L103684 75703
L103909 75703
L103965 75731
L103994 75759
L104022 75815
L104022 75899
L103994 75956
L103965 75984
L103909 76012
L103684 76012
" />
<path d="M104500 76265
L104444 76293
L104331 76293
L104275 76265
L104247 76209
L104247 75984
L104275 75928
L104331 75899
L104444 75899
L104500 75928
L104528 75984
L104528 76040
L104247 76096
" />
<path d="M104725 75899
L104865 76293
L105006 75899
" />
<path d="M105231 76237
L105259 76265
L105231 76293
L105203 76265
L105231 76237
L105231 76293
" />
<path d="M105231 75928
L105259 75956
L105231 75984
L105203 75956
L105231 75928
L105231 75984
" />
</g>
<g style="fill:#000000; fill-opacity:0.0; 
stroke:#000000; stroke-width:39.3701; stroke-opacity:1; 
stroke-linecap:round; stroke-linejoin:round;">
</g>
<g style="fill:#000000; fill-opacity:0.0; 
stroke:#000000; stroke-width:59.0551; stroke-opacity:1; 
stroke-linecap:round; stroke-linejoin:round;">
<path d="M70192 76265
L70276 76293
L70417 76293
L70473 76265
L70501 76237
L70529 76181
L70529 76124
L70501 76068
L70473 76040
L70417 76012
L70304 75984
L70248 75956
L70220 75928
L70192 75871
L70192 75815
L70220 75759
L70248 75731
L70304 75703
L70445 75703
L70529 75731
" />
<path d="M70782 76293
L70782 75899
" />
<path d="M70782 75703
L70754 75731
L70782 75759
L70810 75731
L70782 75703
L70782 75759
" />
<path d="M71007 75899
L71316 75899
L71007 76293
L71316 76293
" />
<path d="M71766 76265
L71710 76293
L71598 76293
L71541 76265
L71513 76209
L71513 75984
L71541 75928
L71598 75899
L71710 75899
L71766 75928
L71795 75984
L71795 76040
L71513 76096
" />
<path d="M72048 76237
L72076 76265
L72048 76293
L72019 76265
L72048 76237
L72048 76293
" />
<path d="M72048 75928
L72076 75956
L72048 75984
L72019 75956
L72048 75928
L72048 75984
" />
<path d="M72751 76124
L73032 76124
" />
<path d="M72694 76293
L72891 75703
L73088 76293
" />
<path d="M73538 75899
L73538 76293
" />
<path d="M73397 75674
L73257 76096
L73622 76096
" />
</g>
<g style="fill:#000000; fill-opacity:0.0; 
stroke:#000000; stroke-width:39.3701; stroke-opacity:1; 
stroke-linecap:round; stroke-linejoin:round;">
</g>
<g style="fill:#000000; fill-opacity:0.0; 
stroke:#000000; stroke-width:59.0551; stroke-opacity:1; 
stroke-linecap:round; stroke-linejoin:round;">
<path d="M103684 77395
L103684 76805
" />
<path d="M104219 77395
L104219 76805
" />
<path d="M104219 77367
L104162 77395
L104050 77395
L103994 77367
L103965 77339
L103937 77283
L103937 77114
L103965 77058
L103994 77030
L104050 77002
L104162 77002
L104219 77030
" />
<path d="M104500 77339
L104528 77367
L104500 77395
L104472 77367
L104500 77339
L104500 77395
" />
<path d="M104500 77030
L104528 77058
L104500 77086
L104472 77058
L104500 77030
L104500 77086
" />
<path d="M105540 77395
L105203 77395
" />
<path d="M105372 77395
L105372 76805
L105315 76889
L105259 76946
L105203 76974
" />
<path d="M106215 76777
L105709 77536
" />
<path d="M106721 77395
L106384 77395
" />
<path d="M106553 77395
L106553 76805
L106496 76889
L106440 76946
L106384 76974
" />
</g>
<g style="fill:#000000; fill-opacity:0.0; 
stroke:#000000; stroke-width:39.3701; stroke-opacity:1; 
stroke-linecap:round; stroke-linejoin:round;">
</g>
<g style="fill:#000000; fill-opacity:0.0; 
stroke:#000000; stroke-width:59.0551; stroke-opacity:1; 
stroke-linecap:round; stroke-linejoin:round;">
<path d="M69685 73821
L112205 73821
" />
</g>
<g style="fill:#000000; fill-opacity:0.0; 
stroke:#000000; stroke-width:39.3701; stroke-opacity:1; 
stroke-linecap:round; stroke-linejoin:round;">
</g>
<g style="fill:#000000; fill-opacity:0.0; 
stroke:#000000; stroke-width:157.48; stroke-opacity:1; 
stroke-linecap:round; stroke-linejoin:round;">
<path d="M70257 74099
L70707 74099
" />
<path d="M70384 74886
L70482 74099
" />
<path d="M70871 74886
L70937 74361
" />
<path d="M70970 74099
L70927 74136
L70960 74174
L71002 74136
L70970 74099
L70960 74174
" />
<path d="M71199 74361
L71499 74361
" />
<path d="M71345 74099
L71260 74774
L71288 74849
L71359 74886
L71434 74886
" />
<path d="M71809 74886
L71738 74849
L71710 74774
L71795 74099
" />
<path d="M72413 74849
L72334 74886
L72184 74886
L72113 74849
L72085 74774
L72123 74474
L72169 74399
L72249 74361
L72399 74361
L72469 74399
L72498 74474
L72488 74549
L72104 74624
" />
<path d="M72793 74811
L72826 74849
L72783 74886
L72751 74849
L72793 74811
L72783 74886
" />
<path d="M72844 74399
L72877 74436
L72835 74474
L72802 74436
L72844 74399
L72835 74474
" />
</g>
<g style="fill:#000000; fill-opacity:0.0; 
stroke:#000000; stroke-width:39.3701; stroke-opacity:1; 
stroke-linecap:round; stroke-linejoin:round;">
</g>
<g style="fill:#000000; fill-opacity:0.0; 
stroke:#000000; stroke-width:59.0551; stroke-opacity:1; 
stroke-linecap:round; stroke-linejoin:round;">
<path d="M70417 73070
L70220 73070
" />
<path d="M70220 73380
L70220 72789
L70501 72789
" />
<path d="M70726 73380
L70726 72986
" />
<path d="M70726 72789
L70698 72817
L70726 72845
L70754 72817
L70726 72789
L70726 72845
" />
<path d="M71091 73380
L71035 73352
L71007 73295
L71007 72789
" />
<path d="M71541 73352
L71485 73380
L71373 73380
L71316 73352
L71288 73295
L71288 73070
L71316 73014
L71373 72986
L71485 72986
L71541 73014
L71570 73070
L71570 73127
L71288 73183
" />
<path d="M71823 73323
L71851 73352
L71823 73380
L71795 73352
L71823 73323
L71823 73380
" />
<path d="M71823 73014
L71851 73042
L71823 73070
L71795 73042
L71823 73014
L71823 73070
" />
<path d="M72863 72817
L72807 72789
L72723 72789
L72638 72817
L72582 72874
L72554 72930
L72526 73042
L72526 73127
L72554 73239
L72582 73295
L72638 73352
L72723 73380
L72779 73380
L72863 73352
L72891 73323
L72891 73127
L72779 73127
" />
<path d="M73144 73380
L73144 72986
" />
<path d="M73144 73099
L73172 73042
L73201 73014
L73257 72986
L73313 72986
" />
<path d="M73594 73380
L73538 73352
L73510 73323
L73482 73267
L73482 73099
L73510 73042
L73538 73014
L73594 72986
L73679 72986
L73735 73014
L73763 73042
L73791 73099
L73791 73267
L73763 73323
L73735 73352
L73679 73380
L73594 73380
" />
<path d="M74297 72986
L74297 73380
" />
<path d="M74044 72986
L74044 73295
L74072 73352
L74129 73380
L74213 73380
L74269 73352
L74297 73323
" />
<path d="M74579 72986
L74579 73380
" />
<path d="M74579 73042
L74607 73014
L74663 72986
L74747 72986
L74804 73014
L74832 73070
L74832 73380
" />
<path d="M75366 73380
L75366 72789
" />
<path d="M75366 73352
L75310 73380
L75197 73380
L75141 73352
L75113 73323
L75085 73267
L75085 73099
L75113 73042
L75141 73014
L75197 72986
L75310 72986
L75366 73014
" />
<path d="M76069 73352
L76153 73380
L76294 73380
L76350 73352
L76378 73323
L76406 73267
L76406 73211
L76378 73155
L76350 73127
L76294 73099
L76181 73070
L76125 73042
L76097 73014
L76069 72958
L76069 72902
L76097 72845
L76125 72817
L76181 72789
L76322 72789
L76406 72817
" />
<path d="M76575 72986
L76800 72986
" />
<path d="M76660 72789
L76660 73295
L76688 73352
L76744 73380
L76800 73380
" />
<path d="M77250 73380
L77250 73070
L77222 73014
L77166 72986
L77053 72986
L76997 73014
" />
<path d="M77250 73352
L77194 73380
L77053 73380
L76997 73352
L76969 73295
L76969 73239
L76997 73183
L77053 73155
L77194 73155
L77250 73127
" />
<path d="M77447 72986
L77672 72986
" />
<path d="M77531 72789
L77531 73295
L77559 73352
L77616 73380
L77672 73380
" />
<path d="M77869 73380
L77869 72986
" />
<path d="M77869 72789
L77841 72817
L77869 72845
L77897 72817
L77869 72789
L77869 72845
" />
<path d="M78234 73380
L78178 73352
L78150 73323
L78122 73267
L78122 73099
L78150 73042
L78178 73014
L78234 72986
L78319 72986
L78375 73014
L78403 73042
L78431 73099
L78431 73267
L78403 73323
L78375 73352
L78319 73380
L78234 73380
" />
<path d="M78684 72986
L78684 73380
" />
<path d="M78684 73042
L78712 73014
L78769 72986
L78853 72986
L78909 73014
L78937 73070
L78937 73380
" />
<path d="M79219 73323
L79247 73352
L79219 73380
L79190 73352
L79219 73323
L79219 73380
" />
<path d="M79500 73380
L79500 72789
" />
<path d="M79556 73155
L79725 73380
" />
<path d="M79725 72986
L79500 73211
" />
<path d="M79978 73380
L79978 72986
" />
<path d="M79978 72789
L79950 72817
L79978 72845
L80006 72817
L79978 72789
L79978 72845
" />
<path d="M80512 73352
L80456 73380
L80343 73380
L80287 73352
L80259 73323
L80231 73267
L80231 73099
L80259 73042
L80287 73014
L80343 72986
L80456 72986
L80512 73014
" />
<path d="M81018 73380
L81018 73070
L80990 73014
L80934 72986
L80822 72986
L80765 73014
" />
<path d="M81018 73352
L80962 73380
L80822 73380
L80765 73352
L80737 73295
L80737 73239
L80765 73183
L80822 73155
L80962 73155
L81018 73127
" />
<path d="M81553 73380
L81553 72789
" />
<path d="M81553 73352
L81496 73380
L81384 73380
L81328 73352
L81300 73323
L81271 73267
L81271 73099
L81300 73042
L81328 73014
L81384 72986
L81496 72986
L81553 73014
" />
<path d="M81693 73436
L82143 73436
" />
<path d="M82284 72986
L82284 73577
" />
<path d="M82284 73014
L82340 72986
L82453 72986
L82509 73014
L82537 73042
L82565 73099
L82565 73267
L82537 73323
L82509 73352
L82453 73380
L82340 73380
L82284 73352
" />
<path d="M83071 73352
L83015 73380
L82903 73380
L82846 73352
L82818 73323
L82790 73267
L82790 73099
L82818 73042
L82846 73014
L82903 72986
L83015 72986
L83071 73014
" />
<path d="M83324 73380
L83324 72789
" />
<path d="M83324 73014
L83381 72986
L83493 72986
L83549 73014
L83577 73042
L83606 73099
L83606 73267
L83577 73323
L83549 73352
L83493 73380
L83381 73380
L83324 73352
" />
</g>
<g style="fill:#000000; fill-opacity:0.0; 
stroke:#000000; stroke-width:39.3701; stroke-opacity:1; 
stroke-linecap:round; stroke-linejoin:round;">
</g>
<g style="fill:#000000; fill-opacity:0.0; 
stroke:#000000; stroke-width:59.0551; stroke-opacity:1; 
stroke-linecap:round; stroke-linejoin:round;">
<path d="M69685 71459
L112205 71459
" />
</g>
<g style="fill:#000000; fill-opacity:0.0; 
stroke:#000000; stroke-width:39.3701; stroke-opacity:1; 
stroke-linecap:round; stroke-linejoin:round;">
</g>
<g style="fill:#000000; fill-opacity:0.0; 
stroke:#000000; stroke-width:59.0551; stroke-opacity:1; 
stroke-linecap:round; stroke-linejoin:round;">
<path d="M70192 72289
L70276 72317
L70417 72317
L70473 72289
L70501 72260
L70529 72204
L70529 72148
L70501 72092
L70473 72064
L70417 72036
L70304 72007
L70248 71979
L70220 71951
L70192 71895
L70192 71839
L70220 71782
L70248 71754
L70304 71726
L70445 71726
L70529 71754
" />
<path d="M70782 72317
L70782 71726
" />
<path d="M71035 72317
L71035 72007
L71007 71951
L70951 71923
L70867 71923
L70810 71951
L70782 71979
" />
<path d="M71541 72289
L71485 72317
L71373 72317
L71316 72289
L71288 72232
L71288 72007
L71316 71951
L71373 71923
L71485 71923
L71541 71951
L71570 72007
L71570 72064
L71288 72120
" />
<path d="M72048 72289
L71991 72317
L71879 72317
L71823 72289
L71795 72232
L71795 72007
L71823 71951
L71879 71923
L71991 71923
L72048 71951
L72076 72007
L72076 72064
L71795 72120
" />
<path d="M72244 71923
L72469 71923
" />
<path d="M72329 71726
L72329 72232
L72357 72289
L72413 72317
L72469 72317
" />
<path d="M72666 72260
L72694 72289
L72666 72317
L72638 72289
L72666 72260
L72666 72317
" />
<path d="M72666 71951
L72694 71979
L72666 72007
L72638 71979
L72666 71951
L72666 72007
" />
</g>
<g style="fill:#000000; fill-opacity:0.0; 
stroke:#000000; stroke-width:39.3701; stroke-opacity:1; 
stroke-linecap:round; stroke-linejoin:round;">
</g>
<g style="fill:#000000; fill-opacity:0.0; 
stroke:#000000; stroke-width:59.0551; stroke-opacity:1; 
stroke-linecap:round; stroke-linejoin:round;">
<path d="M77559 75396
L77559 76577
" />
</g>
<g style="fill:#000000; fill-opacity:0.0; 
stroke:#000000; stroke-width:39.3701; stroke-opacity:1; 
stroke-linecap:round; stroke-linejoin:round;">
</g>
<g style="fill:#000000; fill-opacity:0.0; 
stroke:#000000; stroke-width:59.0551; stroke-opacity:1; 
stroke-linecap:round; stroke-linejoin:round;">
<path d="M102756 75396
L102756 77955
" />
<path d="M56413 37677
L56429 37649
" />
<path d="M56330 37696
L56413 37677
" />
<path d="M56326 37374
L56330 37696
" />
<path d="M56326 37342
L56326 37374
" />
<path d="M56401 37354
L56326 37342
" />
<path d="M57791 37346
L57826 37377
" />
<path d="M57858 37350
L57791 37346
" />
<path d="M57846 37460
L57858 37350
" />
<path d="M57779 37685
L57811 37645
" />
<path d="M57854 37692
L57779 37685
" />
<path d="M57846 37547
L57854 37692
" />
<path d="M58716 37342
L58712 37366
" />
<path d="M58669 37342
L58716 37342
" />
<path d="M58661 37381
L58669 37342
" />
<path d="M58692 37405
L58661 37381
" />
<path d="M58665 37610
L58696 37657
" />
<path d="M58677 37692
L58665 37610
" />
<path d="M58822 37673
L58677 37692
" />
<path d="M59677 37346
L59610 37342
" />
<path d="M59681 37444
L59677 37346
" />
<path d="M59330 38433
L59366 38496
" />
<path d="M59338 38527
L59330 38433
" />
<path d="M59649 38500
L59338 38527
" />
<path d="M59582 38531
L59653 38500
" />
<path d="M59673 38523
L59582 38531
" />
<path d="M59685 38389
L59673 38523
" />
<path d="M59685 39452
L59685 39496
" />
<path d="M59559 39444
L59685 39452
" />
<path d="M59405 39429
L59362 39480
" />
<path d="M59338 39440
L59405 39429
" />
<path d="M59334 39539
L59338 39440
" />
<path d="M59397 40881
L59397 40870
" />
<path d="M59338 40795
L59397 40881
" />
<path d="M59346 40889
L59338 40795
" />
<path d="M59472 40889
L59346 40889
" />
<path d="M59637 40870
L59606 40877
" />
<path d="M59673 40893
L59637 40870
" />
<path d="M59685 40799
L59673 40893
" />
<path d="M59338 41799
L59425 41822
" />
<path d="M59342 41909
L59338 41799
" />
<path d="M59673 41799
L59625 41807
" />
<path d="M59677 41913
L59673 41799
" />
<path d="M59673 42980
L59685 42940
" />
<path d="M59598 42976
L59673 42980
" />
<path d="M58696 42984
L58763 42976
" />
<path d="M58685 42897
L58696 42984
" />
<path d="M58692 42641
L58759 42649
" />
<path d="M58688 42724
L58692 42641
" />
<path d="M57771 42976
L57688 42988
" />
<path d="M57736 42669
L57771 42976
" />
<path d="M57775 42740
L57732 42661
" />
<path d="M57775 42641
L57775 42740
" />
<path d="M57633 42637
L57775 42641
" />
<path d="M56413 42645
L56602 42716
" />
<path d="M56334 42645
L56413 42645
" />
<path d="M56318 42988
L56334 42645
" />
<path d="M56409 42984
L56318 42988
" />
<path d="M55397 42641
L55334 42649
" />
<path d="M55389 42940
L55397 42641
" />
<path d="M55409 42925
L55389 42940
" />
<path d="M55421 42984
L55409 42925
" />
<path d="M54488 42984
L55421 42984
" />
<path d="M54417 42972
L54488 42984
" />
<path d="M54417 42933
L54417 42972
" />
<path d="M54755 41901
L54417 42933
" />
<path d="M54748 41803
L54755 41901
" />
<path d="M54476 41807
L54748 41803
" />
<path d="M54417 41811
L54476 41807
" />
<path d="M54413 41885
L54417 41811
" />
<path d="M54413 40818
L54433 40866
" />
<path d="M54401 40893
L54413 40818
" />
<path d="M54519 40889
L54401 40893
" />
<path d="M54755 40854
L54755 40795
" />
<path d="M54669 40889
L54755 40854
" />
<path d="M54771 40893
L54669 40889
" />
<path d="M54716 39468
L54767 39511
" />
<path d="M54763 39440
L54716 39468
" />
<path d="M54665 39433
L54763 39440
" />
<path d="M54464 39437
L54492 39437
" />
<path d="M54417 39507
L54464 39437
" />
<path d="M54413 39433
L54417 39507
" />
</g>
<g style="fill:#000000; fill-opacity:0.0; 
stroke:#000000; stroke-width:393.701; stroke-opacity:1; 
stroke-linecap:round; stroke-linejoin:round;">
<path d="M56480 37507
L57681 37515
" />
<path d="M59519 37511
L58838 37507
" />
<path d="M59511 38346
L59515 37507
" />
<path d="M59515 40708
L59515 39610
" />
<path d="M59507 42822
L59511 41968
" />
<path d="M58854 42814
L59527 42818
" />
<path d="M56488 42822
L57598 42822
" />
<path d="M54578 42814
L55244 42814
" />
<path d="M54582 41972
L54578 42814
" />
<path d="M54582 39614
L54582 40716
" />
</g>
<g style="fill:#000000; fill-opacity:0.0; 
stroke:#000000; stroke-width:39.3701; stroke-opacity:1; 
stroke-linecap:round; stroke-linejoin:round;">
<path d="M59708 38551
L59314 38551
" />
<path d="M59708 37318
L59708 38551
" />
<path d="M59539 37318
L59708 37318
" />
<path d="M58858 37318
L59539 37318
" />
<path d="M58645 37318
L58858 37318
" />
<path d="M58645 37712
L58645 37318
" />
<path d="M59314 37712
L58645 37712
" />
<path d="M59314 38551
L59314 37712
" />
<path d="M59314 40913
L59708 40913
" />
<path d="M59708 39417
L59708 40913
" />
<path d="M59314 39417
L59708 39417
" />
<path d="M59314 39464
L59314 39417
" />
<path d="M59314 39905
L59314 39464
" />
<path d="M59314 40173
L59314 39905
" />
<path d="M59314 40401
L59314 40173
" />
<path d="M59314 40425
L59314 40401
" />
<path d="M59314 40913
L59314 40425
" />
<path d="M54444 38500
L54409 38480
" />
<path d="M54409 38519
L54444 38500
" />
<path d="M54515 38531
L54409 38519
" />
<path d="M54692 38535
L54657 38519
" />
<path d="M54700 38492
L54692 38535
" />
<path d="M54720 38531
L54700 38492
" />
<path d="M54728 38464
L54720 38531
" />
<path d="M54755 38531
L54728 38464
" />
<path d="M54755 38374
L54755 38531
" />
</g>
<g style="fill:#000000; fill-opacity:0.0; 
stroke:#000000; stroke-width:393.701; stroke-opacity:1; 
stroke-linecap:round; stroke-linejoin:round;">
<path d="M54570 37590
L54570 38354
" />
</g>
<g style="fill:#000000; fill-opacity:0.0; 
stroke:#000000; stroke-width:39.3701; stroke-opacity:1; 
stroke-linecap:round; stroke-linejoin:round;">
<path d="M54460 37653
L54425 37637
" />
<path d="M54397 37692
L54460 37653
" />
<path d="M54527 37685
L54397 37692
" />
<path d="M54409 37716
L54594 37716
" />
<path d="M54405 37578
L54409 37716
" />
<path d="M54503 37334
L54511 37350
" />
<path d="M54460 37370
L54484 37334
" />
<path d="M54437 37338
L54460 37370
" />
<path d="M54413 37437
L54437 37338
" />
<path d="M54409 37338
L54413 37437
" />
<path d="M55303 37681
L55397 37641
" />
<path d="M55413 37685
L55303 37681
" />
<path d="M55413 37570
L55413 37685
" />
<path d="M55342 37389
L55342 37338
" />
<path d="M55385 37338
L55342 37389
" />
<path d="M55409 37429
L55385 37338
" />
<path d="M55413 37338
L55409 37429
" />
</g>
<g style="fill:#000000; fill-opacity:0.0; 
stroke:#000000; stroke-width:393.701; stroke-opacity:1; 
stroke-linecap:round; stroke-linejoin:round;">
<path d="M54590 37515
L55236 37515
" />
</g>
<g style="fill:#000000; fill-opacity:0.0; 
stroke:#000000; stroke-width:39.3701; stroke-opacity:1; 
stroke-linecap:round; stroke-linejoin:round;">
<path d="M59314 41779
L59314 42618
" />
<path d="M59708 41779
L59314 41779
" />
<path d="M59712 43011
L59708 41779
" />
<path d="M56303 37712
L56303 37318
" />
<path d="M57877 37712
L56303 37712
" />
<path d="M57877 37318
L57877 37712
" />
<path d="M56303 37318
L57877 37318
" />
<path d="M55437 37712
L54783 37712
" />
<path d="M55437 37318
L55437 37712
" />
<path d="M56303 43011
L57799 43011
" />
<path d="M57799 42618
L56303 42618
" />
<path d="M58665 42618
L59708 42618
" />
<path d="M59708 43011
L58665 43011
" />
<path d="M59708 42618
L59708 43011
" />
<path d="M58665 42618
L58665 43011
" />
<path d="M57799 42618
L57799 43011
" />
<path d="M56303 42618
L56303 43011
" />
<path d="M54389 43011
L55437 43011
" />
<path d="M54389 42618
L54389 43011
" />
<path d="M55437 42618
L54389 42618
" />
<path d="M55437 43011
L55437 42618
" />
<path d="M54389 39633
L54389 39417
" />
<path d="M54389 39866
L54389 39633
" />
<path d="M54389 39944
L54389 39866
" />
<path d="M54389 40287
L54389 39944
" />
<path d="M54389 40685
L54389 40287
" />
<path d="M54389 40803
L54389 40685
" />
<path d="M54389 40870
L54389 40803
" />
<path d="M54389 40913
L54389 40870
" />
<path d="M54783 40755
L54783 40913
" />
<path d="M54783 40543
L54783 40755
" />
<path d="M54783 40314
L54783 40543
" />
<path d="M54783 40137
L54783 40314
" />
<path d="M54783 40000
L54783 40137
" />
<path d="M54783 39803
L54783 40000
" />
<path d="M54783 39673
L54783 39803
" />
<path d="M54783 39417
L54783 39673
" />
<path d="M54783 37440
L54783 37318
" />
<path d="M54783 37523
L54783 37440
" />
<path d="M54783 37578
L54783 37523
" />
<path d="M54783 38362
L54783 37578
" />
<path d="M54783 38551
L54783 38362
" />
<path d="M54389 37318
L54389 38551
" />
<path d="M54389 37318
L55437 37318
" />
<path d="M54389 38551
L54783 38551
" />
<path d="M54389 39417
L54783 39417
" />
<path d="M54389 40913
L54783 40913
" />
<path d="M54783 43011
L54389 43011
" />
<path d="M54783 41779
L54783 43011
" />
<path d="M54389 41779
L54783 41779
" />
<path d="M54389 43011
L54389 41779
" />
</g>
<g style="fill:#000000; fill-opacity:0.0; 
stroke:#000000; stroke-width:0; stroke-opacity:1; 
stroke-linecap:round; stroke-linejoin:round;">
</g>
<g style="fill:#000000; fill-opacity:1.0; 
stroke:#000000; stroke-width:0; stroke-opacity:1; 
stroke-linecap:round; stroke-linejoin:round;">
<polyline style="fill-rule:evenodd;"
points="62490,38523
62647,38523
62647,39055
62490,39055
62490,38523
" /> 
<polyline style="fill-rule:evenodd;"
points="62234,38523
62391,38523
62391,39055
62234,39055
62234,38523
" /> 
<polyline style="fill-rule:evenodd;"
points="61978,38523
62135,38523
62135,39055
61978,39055
61978,38523
" /> 
<polyline style="fill-rule:evenodd;"
points="61722,38523
61879,38523
61879,39055
61722,39055
61722,38523
" /> 
<polyline style="fill-rule:evenodd;"
points="61466,38523
61624,38523
61624,39055
61466,39055
61466,38523
" /> 
<polyline style="fill-rule:evenodd;"
points="61210,38523
61368,38523
61368,39055
61210,39055
61210,38523
" /> 
<polyline style="fill-rule:evenodd;"
points="60954,38523
61112,38523
61112,39055
60954,39055
60954,38523
" /> 
<polyline style="fill-rule:evenodd;"
points="60698,38523
60856,38523
60856,39055
60698,39055
60698,38523
" /> 
<polyline style="fill-rule:evenodd;"
points="60442,38523
60600,38523
60600,39055
60442,39055
60442,38523
" /> 
<polyline style="fill-rule:evenodd;"
points="60187,38523
60344,38523
60344,39055
60187,39055
60187,38523
" /> 
<polyline style="fill-rule:evenodd;"
points="60187,40787
60344,40787
60344,41318
60187,41318
60187,40787
" /> 
<polyline style="fill-rule:evenodd;"
points="60442,40787
60600,40787
60600,41318
60442,41318
60442,40787
" /> 
<polyline style="fill-rule:evenodd;"
points="60698,40787
60856,40787
60856,41318
60698,41318
60698,40787
" /> 
<polyline style="fill-rule:evenodd;"
points="60954,40787
61112,40787
61112,41318
60954,41318
60954,40787
" /> 
<polyline style="fill-rule:evenodd;"
points="61210,40787
61368,40787
61368,41318
61210,41318
61210,40787
" /> 
<polyline style="fill-rule:evenodd;"
points="61466,40787
61624,40787
61624,41318
61466,41318
61466,40787
" /> 
<polyline style="fill-rule:evenodd;"
points="61722,40787
61879,40787
61879,41318
61722,41318
61722,40787
" /> 
<polyline style="fill-rule:evenodd;"
points="61978,40787
62135,40787
62135,41318
61978,41318
61978,40787
" /> 
<polyline style="fill-rule:evenodd;"
points="62234,40787
62391,40787
62391,41318
62234,41318
62234,40787
" /> 
<polyline style="fill-rule:evenodd;"
points="62490,40787
62647,40787
62647,41318
62490,41318
62490,40787
" /> 
<polyline style="fill-rule:evenodd;"
points="64143,37559
64143,37381
64714,37381
64714,37559
64143,37559
" /> 
<polyline style="fill-rule:evenodd;"
points="64143,37814
64143,37637
64714,37637
64714,37814
64143,37814
" /> 
<polyline style="fill-rule:evenodd;"
points="64143,38070
64143,37893
64714,37893
64714,38070
64143,38070
" /> 
<polyline style="fill-rule:evenodd;"
points="64143,38326
64143,38149
64714,38149
64714,38326
64143,38326
" /> 
<polyline style="fill-rule:evenodd;"
points="65875,38326
65875,38149
66446,38149
66446,38326
65875,38326
" /> 
<polyline style="fill-rule:evenodd;"
points="65875,38070
65875,37893
66446,37893
66446,38070
65875,38070
" /> 
<polyline style="fill-rule:evenodd;"
points="65875,37814
65875,37637
66446,37637
66446,37814
65875,37814
" /> 
<polyline style="fill-rule:evenodd;"
points="65875,37559
65875,37381
66446,37381
66446,37559
65875,37559
" /> 
<polyline style="fill-rule:evenodd;"
points="56860,39606
56860,39488
57155,39488
57155,39606
56860,39606
" /> 
<polyline style="fill-rule:evenodd;"
points="56860,39803
56860,39685
57155,39685
57155,39803
56860,39803
" /> 
<polyline style="fill-rule:evenodd;"
points="56860,40000
56860,39881
57155,39881
57155,40000
56860,40000
" /> 
<polyline style="fill-rule:evenodd;"
points="56860,40196
56860,40078
57155,40078
57155,40196
56860,40196
" /> 
<polyline style="fill-rule:evenodd;"
points="56860,40393
56860,40275
57155,40275
57155,40393
56860,40393
" /> 
<polyline style="fill-rule:evenodd;"
points="57342,40875
57342,40580
57460,40580
57460,40875
57342,40875
" /> 
<polyline style="fill-rule:evenodd;"
points="57539,40875
57539,40580
57657,40580
57657,40875
57539,40875
" /> 
<polyline style="fill-rule:evenodd;"
points="57736,40875
57736,40580
57854,40580
57854,40875
57736,40875
" /> 
<polyline style="fill-rule:evenodd;"
points="57933,40875
57933,40580
58051,40580
58051,40875
57933,40875
" /> 
<polyline style="fill-rule:evenodd;"
points="58129,40875
58129,40580
58248,40580
58248,40875
58129,40875
" /> 
<polyline style="fill-rule:evenodd;"
points="58435,40393
58435,40275
58730,40275
58730,40393
58435,40393
" /> 
<polyline style="fill-rule:evenodd;"
points="58435,40196
58435,40078
58730,40078
58730,40196
58435,40196
" /> 
<polyline style="fill-rule:evenodd;"
points="58435,40000
58435,39881
58730,39881
58730,40000
58435,40000
" /> 
<polyline style="fill-rule:evenodd;"
points="58435,39803
58435,39685
58730,39685
58730,39803
58435,39803
" /> 
<polyline style="fill-rule:evenodd;"
points="58435,39606
58435,39488
58730,39488
58730,39606
58435,39606
" /> 
<polyline style="fill-rule:evenodd;"
points="58129,39301
58129,39005
58248,39005
58248,39301
58129,39301
" /> 
<polyline style="fill-rule:evenodd;"
points="57933,39301
57933,39005
58051,39005
58051,39301
57933,39301
" /> 
<polyline style="fill-rule:evenodd;"
points="57736,39301
57736,39005
57854,39005
57854,39301
57736,39301
" /> 
<polyline style="fill-rule:evenodd;"
points="57539,39301
57539,39005
57657,39005
57657,39301
57539,39301
" /> 
<polyline style="fill-rule:evenodd;"
points="57342,39301
57342,39005
57460,39005
57460,39301
57342,39301
" /> 
<polyline style="fill-rule:evenodd;"
points="57283,40453
57283,39428
58307,39428
58307,40453
57283,40453
" /> 
</g>
<g style="fill:#000000; fill-opacity:1.0; 
stroke:#000000; stroke-width:629.921; stroke-opacity:1; 
stroke-linecap:round; stroke-linejoin:round;">
</g>
<g style="fill:#000000; fill-opacity:0.0; 
stroke:#000000; stroke-width:629.921; stroke-opacity:1; 
stroke-linecap:round; stroke-linejoin:round;">
<path d="M67677 42401
L68543 42401
" />
<path d="M67677 37913
L68543 37913
" />
</g>
<g style="fill:#000000; fill-opacity:1.0; 
stroke:#000000; stroke-width:0; stroke-opacity:1; 
stroke-linecap:round; stroke-linejoin:round;">
<circle cx="68110.2" cy="41043.3" r="246.063" /> 
</g>
<g style="fill:#000000; fill-opacity:1.0; 
stroke:#000000; stroke-width:39.3701; stroke-opacity:1; 
stroke-linecap:round; stroke-linejoin:round;">
</g>
<g style="fill:#000000; fill-opacity:1.0; 
stroke:#000000; stroke-width:0; stroke-opacity:1; 
stroke-linecap:round; stroke-linejoin:round;">
<circle cx="68110.2" cy="39271.7" r="246.063" /> 
</g>
<g style="fill:#000000; fill-opacity:1.0; 
stroke:#000000; stroke-width:39.3701; stroke-opacity:1; 
stroke-linecap:round; stroke-linejoin:round;">
</g>
<g style="fill:#000000; fill-opacity:1.0; 
stroke:#000000; stroke-width:0; stroke-opacity:1; 
stroke-linecap:round; stroke-linejoin:round;">
<circle cx="67283.5" cy="40551.2" r="314.961" /> 
</g>
<g style="fill:#000000; fill-opacity:1.0; 
stroke:#000000; stroke-width:39.3701; stroke-opacity:1; 
stroke-linecap:round; stroke-linejoin:round;">
</g>
<g style="fill:#000000; fill-opacity:1.0; 
stroke:#000000; stroke-width:0; stroke-opacity:1; 
stroke-linecap:round; stroke-linejoin:round;">
<circle cx="67283.5" cy="39763.8" r="314.961" /> 
</g>
<g style="fill:#000000; fill-opacity:1.0; 
stroke:#000000; stroke-width:39.3701; stroke-opacity:1; 
stroke-linecap:round; stroke-linejoin:round;">
</g>
<g style="fill:#000000; fill-opacity:1.0; 
stroke:#000000; stroke-width:0; stroke-opacity:1; 
stroke-linecap:round; stroke-linejoin:round;">
<circle cx="67283.5" cy="38779.5" r="314.961" /> 
</g>
<g style="fill:#000000; fill-opacity:1.0; 
stroke:#000000; stroke-width:39.3701; stroke-opacity:1; 
stroke-linecap:round; stroke-linejoin:round;">
</g>
<g style="fill:#000000; fill-opacity:1.0; 
stroke:#000000; stroke-width:0; stroke-opacity:1; 
stroke-linecap:round; stroke-linejoin:round;">
<circle cx="67283.5" cy="41535.4" r="314.961" /> 
</g>
<g style="fill:#000000; fill-opacity:1.0; 
stroke:#000000; stroke-width:39.3701; stroke-opacity:1; 
stroke-linecap:round; stroke-linejoin:round;">
</g>
<g style="fill:#000000; fill-opacity:1.0; 
stroke:#000000; stroke-width:0; stroke-opacity:1; 
stroke-linecap:round; stroke-linejoin:round;">
<polyline style="fill-rule:evenodd;"
points="52027,39907
53681,39907
53681,40407
52027,40407
52027,39907
" /> 
<polyline style="fill-rule:evenodd;"
points="52027,38779
53877,38779
53877,39311
52027,39311
52027,38779
" /> 
<polyline style="fill-rule:evenodd;"
points="52027,41003
53877,41003
53877,41535
52027,41535
52027,41003
" /> 
<polyline style="fill-rule:evenodd;"
points="56177,38893
56381,38893
56381,39098
56177,39098
56177,38893
" /> 
<polyline style="fill-rule:evenodd;"
points="56177,39208
56381,39208
56381,39413
56177,39413
56177,39208
" /> 
<polyline style="fill-rule:evenodd;"
points="65035,38842
65035,38637
65240,38637
65240,38842
65035,38842
" /> 
<polyline style="fill-rule:evenodd;"
points="65350,38842
65350,38637
65555,38637
65555,38842
65350,38842
" /> 
<polyline style="fill-rule:evenodd;"
points="56381,39838
56381,40043
56177,40043
56177,39838
56381,39838
" /> 
<polyline style="fill-rule:evenodd;"
points="56066,39838
56066,40043
55862,40043
55862,39838
56066,39838
" /> 
<polyline style="fill-rule:evenodd;"
points="56696,40153
56696,40358
56492,40358
56492,40153
56696,40153
" /> 
<polyline style="fill-rule:evenodd;"
points="56381,40153
56381,40358
56177,40358
56177,40153
56381,40153
" /> 
<polyline style="fill-rule:evenodd;"
points="66948,38080
66594,38080
66594,37785
66948,37785
66948,38080
" /> 
<polyline style="fill-rule:evenodd;"
points="66948,37529
66594,37529
66594,37234
66948,37234
66948,37529
" /> 
<polyline style="fill-rule:evenodd;"
points="63641,37234
63996,37234
63996,37529
63641,37529
63641,37234
" /> 
<polyline style="fill-rule:evenodd;"
points="63641,37785
63996,37785
63996,38080
63641,38080
63641,37785
" /> 
<polyline style="fill-rule:evenodd;"
points="55232,40468
55437,40468
55437,40673
55232,40673
55232,40468
" /> 
<polyline style="fill-rule:evenodd;"
points="55232,40783
55437,40783
55437,40988
55232,40988
55232,40783
" /> 
<polyline style="fill-rule:evenodd;"
points="55751,39728
55547,39728
55547,39523
55751,39523
55751,39728
" /> 
<polyline style="fill-rule:evenodd;"
points="55751,39413
55547,39413
55547,39208
55751,39208
55751,39413
" /> 
<polyline style="fill-rule:evenodd;"
points="55437,39413
55232,39413
55232,39208
55437,39208
55437,39413
" /> 
<polyline style="fill-rule:evenodd;"
points="55437,39098
55232,39098
55232,38893
55437,38893
55437,39098
" /> 
<polyline style="fill-rule:evenodd;"
points="56696,41492
56696,41696
56492,41696
56492,41492
56696,41492
" /> 
<polyline style="fill-rule:evenodd;"
points="56381,41492
56381,41696
56177,41696
56177,41492
56381,41492
" /> 
<polyline style="fill-rule:evenodd;"
points="57726,42007
57726,41653
58021,41653
58021,42007
57726,42007
" /> 
<polyline style="fill-rule:evenodd;"
points="58277,42007
58277,41653
58572,41653
58572,42007
58277,42007
" /> 
<polyline style="fill-rule:evenodd;"
points="57726,41456
57726,41102
58021,41102
58021,41456
57726,41456
" /> 
<polyline style="fill-rule:evenodd;"
points="58277,41456
58277,41102
58572,41102
58572,41456
58277,41456
" /> 
<polyline style="fill-rule:evenodd;"
points="57484,41807
57484,42011
57279,42011
57279,41807
57484,41807
" /> 
<polyline style="fill-rule:evenodd;"
points="57169,41807
57169,42011
56964,42011
56964,41807
57169,41807
" /> 
<polyline style="fill-rule:evenodd;"
points="57484,41098
57484,41303
57279,41303
57279,41098
57484,41098
" /> 
<polyline style="fill-rule:evenodd;"
points="57169,41098
57169,41303
56964,41303
56964,41098
57169,41098
" /> 
<polyline style="fill-rule:evenodd;"
points="57484,41452
57484,41657
57279,41657
57279,41452
57484,41452
" /> 
<polyline style="fill-rule:evenodd;"
points="57169,41452
57169,41657
56964,41657
56964,41452
57169,41452
" /> 
<polyline style="fill-rule:evenodd;"
points="63755,40724
63960,40724
63960,40929
63755,40929
63755,40724
" /> 
<polyline style="fill-rule:evenodd;"
points="63755,41039
63960,41039
63960,41244
63755,41244
63755,41039
" /> 
<polyline style="fill-rule:evenodd;"
points="63283,37692
63488,37692
63488,37897
63283,37897
63283,37692
" /> 
<polyline style="fill-rule:evenodd;"
points="63283,38007
63488,38007
63488,38212
63283,38212
63283,38007
" /> 
<polyline style="fill-rule:evenodd;"
points="61629,37582
61629,37377
61834,37377
61834,37582
61629,37582
" /> 
<polyline style="fill-rule:evenodd;"
points="61944,37582
61944,37377
62149,37377
62149,37582
61944,37582
" /> 
<polyline style="fill-rule:evenodd;"
points="61519,38007
61519,38212
61314,38212
61314,38007
61519,38007
" /> 
<polyline style="fill-rule:evenodd;"
points="61204,38007
61204,38212
61000,38212
61000,38007
61204,38007
" /> 
<polyline style="fill-rule:evenodd;"
points="61000,41629
61204,41629
61204,41834
61000,41834
61000,41629
" /> 
<polyline style="fill-rule:evenodd;"
points="61000,41944
61204,41944
61204,42149
61000,42149
61000,41944
" /> 
<polyline style="fill-rule:evenodd;"
points="61519,37692
61519,37897
61314,37897
61314,37692
61519,37692
" /> 
<polyline style="fill-rule:evenodd;"
points="61204,37692
61204,37897
61000,37897
61000,37692
61204,37692
" /> 
<polyline style="fill-rule:evenodd;"
points="60685,41629
60889,41629
60889,41834
60685,41834
60685,41629
" /> 
<polyline style="fill-rule:evenodd;"
points="60685,41944
60889,41944
60889,42149
60685,42149
60685,41944
" /> 
<polyline style="fill-rule:evenodd;"
points="61204,42779
61000,42779
61000,42574
61204,42574
61204,42779
" /> 
<polyline style="fill-rule:evenodd;"
points="61204,42464
61000,42464
61000,42259
61204,42259
61204,42464
" /> 
<polyline style="fill-rule:evenodd;"
points="61834,38212
61629,38212
61629,38007
61834,38007
61834,38212
" /> 
<polyline style="fill-rule:evenodd;"
points="61834,37897
61629,37897
61629,37692
61834,37692
61834,37897
" /> 
<polyline style="fill-rule:evenodd;"
points="52574,40732
52574,40527
52779,40527
52779,40732
52574,40732
" /> 
<polyline style="fill-rule:evenodd;"
points="52889,40732
52889,40527
53094,40527
53094,40732
52889,40732
" /> 
<polyline style="fill-rule:evenodd;"
points="66206,42519
64631,42519
64631,41181
66206,41181
66206,42519
" /> 
<polyline style="fill-rule:evenodd;"
points="64580,42598
64757,42598
64757,42913
64580,42913
64580,42598
" /> 
<polyline style="fill-rule:evenodd;"
points="65080,42598
65257,42598
65257,42913
65080,42913
65080,42598
" /> 
<polyline style="fill-rule:evenodd;"
points="65580,42598
65757,42598
65757,42913
65580,42913
65580,42598
" /> 
<polyline style="fill-rule:evenodd;"
points="66080,42598
66257,42598
66257,42913
66080,42913
66080,42598
" /> 
<polyline style="fill-rule:evenodd;"
points="66080,40787
66257,40787
66257,41102
66080,41102
66080,40787
" /> 
<polyline style="fill-rule:evenodd;"
points="65580,40787
65757,40787
65757,41102
65580,41102
65580,40787
" /> 
<polyline style="fill-rule:evenodd;"
points="65080,40787
65257,40787
65257,41102
65080,41102
65080,40787
" /> 
<polyline style="fill-rule:evenodd;"
points="64580,40787
64757,40787
64757,41102
64580,41102
64580,40787
" /> 
<polyline style="fill-rule:evenodd;"
points="56696,40043
56492,40043
56492,39838
56696,39838
56696,40043
" /> 
<polyline style="fill-rule:evenodd;"
points="56696,39728
56492,39728
56492,39523
56696,39523
56696,39728
" /> 
<polyline style="fill-rule:evenodd;"
points="56381,39523
56381,39728
56177,39728
56177,39523
56381,39523
" /> 
<polyline style="fill-rule:evenodd;"
points="56066,39523
56066,39728
55862,39728
55862,39523
56066,39523
" /> 
<polyline style="fill-rule:evenodd;"
points="55437,40358
55232,40358
55232,40153
55437,40153
55437,40358
" /> 
<polyline style="fill-rule:evenodd;"
points="55437,40043
55232,40043
55232,39838
55437,39838
55437,40043
" /> 
<polyline style="fill-rule:evenodd;"
points="55437,39523
55437,39728
55232,39728
55232,39523
55437,39523
" /> 
<polyline style="fill-rule:evenodd;"
points="55122,39523
55122,39728
54917,39728
54917,39523
55122,39523
" /> 
<polyline style="fill-rule:evenodd;"
points="56066,40153
56066,40358
55862,40358
55862,40153
56066,40153
" /> 
<polyline style="fill-rule:evenodd;"
points="55751,40153
55751,40358
55547,40358
55547,40153
55751,40153
" /> 
<polyline style="fill-rule:evenodd;"
points="56338,40501
56692,40501
56692,40797
56338,40797
56338,40501
" /> 
<polyline style="fill-rule:evenodd;"
points="56338,41053
56692,41053
56692,41348
56338,41348
56338,41053
" /> 
<circle cx="62177.2" cy="42614.2" r="154.921" /> 
</g>
<g style="fill:#000000; fill-opacity:1.0; 
stroke:#000000; stroke-width:39.3701; stroke-opacity:1; 
stroke-linecap:round; stroke-linejoin:round;">
</g>
<g style="fill:#000000; fill-opacity:1.0; 
stroke:#000000; stroke-width:0; stroke-opacity:1; 
stroke-linecap:round; stroke-linejoin:round;">
<circle cx="62177.2" cy="42114.2" r="154.921" /> 
</g>
<g style="fill:#000000; fill-opacity:1.0; 
stroke:#000000; stroke-width:39.3701; stroke-opacity:1; 
stroke-linecap:round; stroke-linejoin:round;">
</g>
<g style="fill:#000000; fill-opacity:1.0; 
stroke:#000000; stroke-width:0; stroke-opacity:1; 
stroke-linecap:round; stroke-linejoin:round;">
<circle cx="62677.2" cy="42614.2" r="154.921" /> 
</g>
<g style="fill:#000000; fill-opacity:1.0; 
stroke:#000000; stroke-width:39.3701; stroke-opacity:1; 
stroke-linecap:round; stroke-linejoin:round;">
</g>
<g style="fill:#000000; fill-opacity:1.0; 
stroke:#000000; stroke-width:0; stroke-opacity:1; 
stroke-linecap:round; stroke-linejoin:round;">
<circle cx="62677.2" cy="42114.2" r="154.921" /> 
</g>
<g style="fill:#000000; fill-opacity:1.0; 
stroke:#000000; stroke-width:39.3701; stroke-opacity:1; 
stroke-linecap:round; stroke-linejoin:round;">
</g>
<g style="fill:#000000; fill-opacity:1.0; 
stroke:#000000; stroke-width:0; stroke-opacity:1; 
stroke-linecap:round; stroke-linejoin:round;">
<circle cx="63177.2" cy="42614.2" r="154.921" /> 
</g>
<g style="fill:#000000; fill-opacity:1.0; 
stroke:#000000; stroke-width:39.3701; stroke-opacity:1; 
stroke-linecap:round; stroke-linejoin:round;">
</g>
<g style="fill:#000000; fill-opacity:1.0; 
stroke:#000000; stroke-width:0; stroke-opacity:1; 
stroke-linecap:round; stroke-linejoin:round;">
<circle cx="63177.2" cy="42114.2" r="154.921" /> 
</g>
<g style="fill:#000000; fill-opacity:1.0; 
stroke:#000000; stroke-width:39.3701; stroke-opacity:1; 
stroke-linecap:round; stroke-linejoin:round;">
</g>
<g style="fill:#000000; fill-opacity:1.0; 
stroke:#000000; stroke-width:0; stroke-opacity:1; 
stroke-linecap:round; stroke-linejoin:round;">
<circle cx="61677.2" cy="42364.2" r="196.85" /> 
</g>
<g style="fill:#000000; fill-opacity:1.0; 
stroke:#000000; stroke-width:39.3701; stroke-opacity:1; 
stroke-linecap:round; stroke-linejoin:round;">
</g>
<g style="fill:#000000; fill-opacity:1.0; 
stroke:#000000; stroke-width:0; stroke-opacity:1; 
stroke-linecap:round; stroke-linejoin:round;">
<circle cx="63677.2" cy="42764.2" r="196.85" /> 
</g>
<g style="fill:#000000; fill-opacity:1.0; 
stroke:#000000; stroke-width:39.3701; stroke-opacity:1; 
stroke-linecap:round; stroke-linejoin:round;">
</g>
<g style="fill:#000000; fill-opacity:1.0; 
stroke:#000000; stroke-width:0; stroke-opacity:1; 
stroke-linecap:round; stroke-linejoin:round;">
<circle cx="63677.2" cy="41964.2" r="196.85" /> 
</g>
<g style="fill:#000000; fill-opacity:1.0; 
stroke:#000000; stroke-width:39.3701; stroke-opacity:1; 
stroke-linecap:round; stroke-linejoin:round;">
</g>
<g style="fill:#000000; fill-opacity:1.0; 
stroke:#000000; stroke-width:0; stroke-opacity:1; 
stroke-linecap:round; stroke-linejoin:round;">
<polyline style="fill-rule:evenodd;"
points="55122,39413
54917,39413
54917,39208
55122,39208
55122,39413
" /> 
<polyline style="fill-rule:evenodd;"
points="55122,39098
54917,39098
54917,38893
55122,38893
55122,39098
" /> 
<polyline style="fill-rule:evenodd;"
points="61944,37692
62149,37692
62149,37897
61944,37897
61944,37692
" /> 
<polyline style="fill-rule:evenodd;"
points="61944,38007
62149,38007
62149,38212
61944,38212
61944,38007
" /> 
<polyline style="fill-rule:evenodd;"
points="58661,37893
58661,38228
58287,38228
58287,37893
58661,37893
" /> 
<polyline style="fill-rule:evenodd;"
points="58090,37893
58090,38228
57716,38228
57716,37893
58090,37893
" /> 
<polyline style="fill-rule:evenodd;"
points="58090,38346
58090,38681
57716,38681
57716,38346
58090,38346
" /> 
<polyline style="fill-rule:evenodd;"
points="58661,38346
58661,38681
58287,38681
58287,38346
58661,38346
" /> 
<polyline style="fill-rule:evenodd;"
points="63110,38169
62775,38169
62775,37795
63110,37795
63110,38169
" /> 
<polyline style="fill-rule:evenodd;"
points="63110,37598
62775,37598
62775,37224
63110,37224
63110,37598
" /> 
<polyline style="fill-rule:evenodd;"
points="62657,37598
62322,37598
62322,37224
62657,37224
62657,37598
" /> 
<polyline style="fill-rule:evenodd;"
points="62657,38169
62322,38169
62322,37795
62657,37795
62657,38169
" /> 
<polyline style="fill-rule:evenodd;"
points="64360,39094
64360,39488
63986,39488
63986,39094
64360,39094
" /> 
<polyline style="fill-rule:evenodd;"
points="63730,39094
63730,39488
63356,39488
63356,39094
63730,39094
" /> 
<polyline style="fill-rule:evenodd;"
points="66250,39094
66250,39488
65875,39488
65875,39094
66250,39094
" /> 
<polyline style="fill-rule:evenodd;"
points="65620,39094
65620,39488
65246,39488
65246,39094
65620,39094
" /> 
<polyline style="fill-rule:evenodd;"
points="63173,39551
62968,39551
62968,39346
63173,39346
63173,39551
" /> 
<polyline style="fill-rule:evenodd;"
points="63173,39236
62968,39236
62968,39031
63173,39031
63173,39236
" /> 
<polyline style="fill-rule:evenodd;"
points="65062,39551
64858,39551
64858,39346
65062,39346
65062,39551
" /> 
<polyline style="fill-rule:evenodd;"
points="65062,39236
64858,39236
64858,39031
65062,39031
65062,39236
" /> 
</g>
<g style="fill:#000000; fill-opacity:1.0; 
stroke:#000000; stroke-width:39.3701; stroke-opacity:1; 
stroke-linecap:round; stroke-linejoin:round;">
</g>
<g style="fill:#000000; fill-opacity:0.0; 
stroke:#000000; stroke-width:39.3701; stroke-opacity:1; 
stroke-linecap:round; stroke-linejoin:round;">
<path d="M53149 43307
L53543 43307
" />
<path d="M51968 41732
L51968 42125
" />
<path d="M51968.5 42126 A1181.1 1181.1 0.0 0 0 53149.6 43307.1 " />
<path d="M51968 38188
L51968 38582
" />
<path d="M53149 37007
L53543 37007
" />
<path d="M53149.6 37007.9 A1181.1 1181.1 0.0 0 0 51968.5 38189 " />
<path d="M69291 42519
L69291 37795
" />
<path d="M68503.9 43307.1 A787.402 787.402 0.0 0 0 69291.3 42519.7 " />
<path d="M69291.3 37795.3 A787.402 787.402 0.0 0 0 68503.9 37007.9 " />
<path d="M68503 37007
L53543 37007
" />
<path d="M53543 43307
L68503 43307
" />
<path d="M51968 38582
L51968 41732
" />
</g> 
</svg>
