G04 #@! TF.FileFunction,Paste,Top*
%FSLAX46Y46*%
G04 Gerber Fmt 4.6, Leading zero omitted, Abs format (unit mm)*
G04 Created by KiCad (PCBNEW 4.0.2-4+6225~38~ubuntu14.04.1-stable) date Sun 15 May 2016 13:38:06 BST*
%MOMM*%
G01*
G04 APERTURE LIST*
%ADD10C,0.100000*%
%ADD11R,4.000000X3.400000*%
%ADD12R,0.450000X0.900000*%
%ADD13R,0.400000X0.200000*%
%ADD14R,0.200000X0.400000*%
%ADD15R,0.520000X0.520000*%
%ADD16R,1.150000X1.450000*%
%ADD17R,1.450000X1.150000*%
%ADD18R,0.950000X1.000000*%
%ADD19R,1.600000X1.000000*%
%ADD20R,0.400000X0.500000*%
%ADD21R,1.800000X0.700000*%
%ADD22R,1.800000X0.800000*%
%ADD23R,1.100000X0.600000*%
%ADD24R,0.600000X1.000000*%
%ADD25R,0.750000X0.900000*%
%ADD26R,0.900000X0.750000*%
%ADD27R,0.400000X1.350000*%
%ADD28R,1.300000X1.400000*%
%ADD29R,0.975000X1.300000*%
%ADD30R,0.300000X0.550000*%
%ADD31R,0.550000X0.300000*%
%ADD32R,1.002000X1.002000*%
%ADD33R,0.750000X0.300000*%
%ADD34R,0.300000X0.750000*%
%ADD35R,1.102000X1.102000*%
%ADD36R,0.850000X0.950000*%
%ADD37R,0.950000X0.850000*%
%ADD38R,1.300000X0.750000*%
%ADD39R,1.450000X0.450000*%
%ADD40R,4.200000X1.270000*%
%ADD41R,4.700000X1.350000*%
%ADD42R,3.400000X4.000000*%
%ADD43R,0.900000X0.450000*%
G04 APERTURE END LIST*
D10*
D11*
X127900000Y-54800000D03*
D12*
X125995000Y-57550000D03*
X127265000Y-57550000D03*
X128535000Y-57550000D03*
X129805000Y-57550000D03*
X129805000Y-52050000D03*
X128535000Y-52050000D03*
X127265000Y-52050000D03*
X125995000Y-52050000D03*
D13*
X127400000Y-74700000D03*
X127400000Y-75100000D03*
X127400000Y-75500000D03*
X127400000Y-75900000D03*
X127400000Y-76300000D03*
X127400000Y-76700000D03*
D14*
X127900000Y-77200000D03*
X128300000Y-77200000D03*
X128700000Y-77200000D03*
X129100000Y-77200000D03*
X129500000Y-77200000D03*
X129900000Y-77200000D03*
D13*
X130400000Y-76700000D03*
X130400000Y-76300000D03*
X130400000Y-75900000D03*
X130400000Y-75500000D03*
X130400000Y-75100000D03*
X130400000Y-74700000D03*
D14*
X129900000Y-74200000D03*
X129500000Y-74200000D03*
X129100000Y-74200000D03*
X128700000Y-74200000D03*
X128300000Y-74200000D03*
X127900000Y-74200000D03*
D15*
X118500000Y-63700000D03*
X117700000Y-63700000D03*
X134950000Y-70050000D03*
X134950000Y-70850000D03*
D16*
X145450000Y-51900000D03*
X147250000Y-51900000D03*
D17*
X146650000Y-56199999D03*
X146650000Y-54399999D03*
D15*
X148800000Y-77250000D03*
X148800000Y-76450000D03*
X148800000Y-73250000D03*
X148800000Y-72450000D03*
X148800000Y-69250000D03*
X148800000Y-68450000D03*
D18*
X147300000Y-58750000D03*
X145700000Y-58750000D03*
X147300000Y-60750000D03*
X145700000Y-60750000D03*
X147300000Y-62750000D03*
X145700000Y-62750000D03*
X147300000Y-64749999D03*
X145700000Y-64749999D03*
D19*
X144450000Y-54550000D03*
D20*
X145100000Y-53650000D03*
X144450000Y-53650000D03*
X143800000Y-53650000D03*
X143800000Y-55450000D03*
X144450000Y-55450000D03*
X145100000Y-55450000D03*
D21*
X112800000Y-69900000D03*
D22*
X112800000Y-71000000D03*
X112800000Y-72100000D03*
X112800000Y-73200000D03*
X112800000Y-74300000D03*
X112800000Y-75400000D03*
X112800000Y-76500000D03*
X112800000Y-77600000D03*
D21*
X112800000Y-78700000D03*
X122300000Y-69900000D03*
X122300000Y-78700000D03*
D22*
X122300000Y-71000000D03*
X122300000Y-72100000D03*
X122300000Y-73200000D03*
X122300000Y-74300000D03*
X122300000Y-75400000D03*
X122300000Y-76500000D03*
X122300000Y-77600000D03*
D23*
X142000000Y-61775001D03*
X142000000Y-60525001D03*
X142000000Y-59275001D03*
X142000000Y-58025001D03*
X139800000Y-58025001D03*
X139800000Y-59275001D03*
X139800000Y-60525001D03*
X139800000Y-61775001D03*
D24*
X147320000Y-77200000D03*
X145420000Y-77200000D03*
X146370000Y-79500000D03*
X147300000Y-72599999D03*
X145400000Y-72599999D03*
X146350000Y-74899999D03*
X147350000Y-68000000D03*
X145450000Y-68000000D03*
X146400000Y-70300000D03*
X143820000Y-77200000D03*
X141920000Y-77200000D03*
X142870000Y-79500000D03*
X143820000Y-72600000D03*
X141920000Y-72600000D03*
X142870000Y-74900000D03*
X143850000Y-68000000D03*
X141950000Y-68000000D03*
X142900000Y-70300000D03*
D10*
G36*
X136626345Y-53942894D02*
X137050609Y-54367158D01*
X136343503Y-55074264D01*
X135919239Y-54650000D01*
X136626345Y-53942894D01*
X136626345Y-53942894D01*
G37*
G36*
X135282842Y-52599391D02*
X135707106Y-53023655D01*
X135000000Y-53730761D01*
X134575736Y-53306497D01*
X135282842Y-52599391D01*
X135282842Y-52599391D01*
G37*
G36*
X134328248Y-54897488D02*
X134752512Y-55321752D01*
X134045406Y-56028858D01*
X133621142Y-55604594D01*
X134328248Y-54897488D01*
X134328248Y-54897488D01*
G37*
D15*
X146550000Y-76050000D03*
X147350000Y-76050000D03*
X146500000Y-71450000D03*
X147300000Y-71450000D03*
X146550000Y-66850000D03*
X147350000Y-66850000D03*
X144200000Y-79750000D03*
X145000000Y-79750000D03*
X144200000Y-75150000D03*
X145000000Y-75150000D03*
X144250000Y-70550000D03*
X145050000Y-70550000D03*
D25*
X143950000Y-52550000D03*
X142550000Y-52550000D03*
D15*
X142250000Y-76050000D03*
X143050000Y-76050000D03*
X142250000Y-71450000D03*
X143050000Y-71450000D03*
X142300000Y-66850000D03*
X143100000Y-66850000D03*
D26*
X142550000Y-53850000D03*
X142550000Y-55250000D03*
D15*
X143850000Y-76050000D03*
X144650000Y-76050000D03*
X143850000Y-71450000D03*
X144650000Y-71450000D03*
X144000000Y-66850000D03*
X144800000Y-66850000D03*
X149600001Y-76450000D03*
X149600001Y-77250000D03*
X149600000Y-72449999D03*
X149600000Y-73249999D03*
X149600000Y-68450000D03*
X149600000Y-69250000D03*
X148800000Y-78050000D03*
X149600000Y-78050000D03*
X148800000Y-74050000D03*
X149600000Y-74050000D03*
X148800000Y-70050000D03*
X149600000Y-70050000D03*
X143700000Y-58750000D03*
X144500000Y-58750000D03*
X143600000Y-60750000D03*
X144400000Y-60750000D03*
X143600000Y-62750000D03*
X144400000Y-62750000D03*
X143600001Y-64750000D03*
X144400001Y-64750000D03*
X150150000Y-61499999D03*
X149350000Y-61499999D03*
X137200000Y-52200001D03*
X137200000Y-51400001D03*
X137450000Y-57750000D03*
X137450000Y-56950000D03*
X150550000Y-53349999D03*
X150550000Y-54149999D03*
X149350000Y-59500000D03*
X150150000Y-59500000D03*
X150399999Y-68850000D03*
X150399999Y-69650000D03*
X150400000Y-72850001D03*
X150400000Y-73650001D03*
X150400000Y-76850000D03*
X150400000Y-77650000D03*
X149350000Y-63500000D03*
X150150000Y-63500000D03*
D27*
X136150000Y-76325000D03*
X136800000Y-76325000D03*
X135500000Y-76325000D03*
X134850000Y-76325000D03*
X137450000Y-76325000D03*
D28*
X137300000Y-79000000D03*
X135000000Y-79000000D03*
D29*
X139537500Y-79000000D03*
X132762500Y-79000000D03*
D15*
X124020000Y-73170000D03*
X124020000Y-73970000D03*
D10*
G36*
X135782304Y-62949999D02*
X136150000Y-62582303D01*
X136517696Y-62949999D01*
X136150000Y-63317695D01*
X135782304Y-62949999D01*
X135782304Y-62949999D01*
G37*
G36*
X136347990Y-63515685D02*
X136715686Y-63147989D01*
X137083382Y-63515685D01*
X136715686Y-63883381D01*
X136347990Y-63515685D01*
X136347990Y-63515685D01*
G37*
D15*
X134100000Y-70050000D03*
X134100000Y-70850000D03*
X131200000Y-76700000D03*
X131200000Y-77500000D03*
X126400000Y-74700000D03*
X126400000Y-75500000D03*
X126700000Y-68400000D03*
X126700000Y-69200000D03*
D10*
G36*
X136134314Y-62133382D02*
X135766618Y-61765686D01*
X136134314Y-61397990D01*
X136502010Y-61765686D01*
X136134314Y-62133382D01*
X136134314Y-62133382D01*
G37*
G36*
X136700000Y-61567696D02*
X136332304Y-61200000D01*
X136700000Y-60832304D01*
X137067696Y-61200000D01*
X136700000Y-61567696D01*
X136700000Y-61567696D01*
G37*
D15*
X146700000Y-57550001D03*
X147500000Y-57550001D03*
X128950000Y-78400000D03*
X128950000Y-79200000D03*
X124900000Y-67600000D03*
X125700000Y-67600000D03*
X130800000Y-60250000D03*
X130800000Y-59450000D03*
X134599999Y-58800000D03*
X134599999Y-59600000D03*
X133000000Y-56800000D03*
X132200000Y-56800000D03*
X115700001Y-56300000D03*
X115700001Y-57100000D03*
X115699999Y-58700000D03*
X114899999Y-58700000D03*
X116500000Y-59500000D03*
X115700000Y-59500000D03*
X113200000Y-60300000D03*
X113200000Y-61100000D03*
X114000000Y-57900000D03*
X114000000Y-57100000D03*
X113200000Y-57100000D03*
X113200000Y-56300000D03*
X116500000Y-62900000D03*
X115700000Y-62900000D03*
X140600000Y-75500000D03*
X140600000Y-76300000D03*
D25*
X119800000Y-63500000D03*
X121200000Y-63500000D03*
X119800000Y-62100000D03*
X121200000Y-62100000D03*
D15*
X118500000Y-61900001D03*
X117700000Y-61900001D03*
X118500000Y-62800000D03*
X117700000Y-62800000D03*
X142250000Y-63300000D03*
X141450000Y-63300000D03*
X124000000Y-78400000D03*
X124000000Y-77600000D03*
X124000000Y-75700000D03*
X124000000Y-76500000D03*
D30*
X133850000Y-62125000D03*
X133350000Y-62125000D03*
X132850000Y-62125000D03*
X132350000Y-62125000D03*
X131850000Y-62125000D03*
X131350000Y-62125000D03*
X130850000Y-62125000D03*
X130350000Y-62125000D03*
X129850000Y-62125000D03*
X129350000Y-62125000D03*
X128850000Y-62125000D03*
X128350000Y-62125000D03*
D31*
X127725000Y-62750000D03*
X127725000Y-63250000D03*
X127725000Y-63750000D03*
X127725000Y-64250000D03*
X127725000Y-64750000D03*
X127725000Y-65250000D03*
X127725000Y-65750000D03*
X127725000Y-66250000D03*
X127725000Y-66750000D03*
X127725000Y-67250000D03*
X127725000Y-67750000D03*
X127725000Y-68250000D03*
D30*
X128350000Y-68875000D03*
X128850000Y-68875000D03*
X129350000Y-68875000D03*
X129850000Y-68875000D03*
X130350000Y-68875000D03*
X130850000Y-68875000D03*
X131350000Y-68875000D03*
X131850000Y-68875000D03*
X132350000Y-68875000D03*
X132850000Y-68875000D03*
X133350000Y-68875000D03*
X133850000Y-68875000D03*
D31*
X134475000Y-68250000D03*
X134475000Y-67750000D03*
X134475000Y-67250000D03*
X134475000Y-66750000D03*
X134475000Y-66250000D03*
X134475000Y-65750000D03*
X134475000Y-65250000D03*
X134475000Y-64750000D03*
X134475000Y-64250000D03*
X134475000Y-63750000D03*
X134475000Y-63250000D03*
X134475000Y-62750000D03*
D32*
X132350000Y-64250000D03*
X129850000Y-64250000D03*
X132350000Y-66750000D03*
X129850000Y-66750000D03*
D33*
X117550000Y-57699999D03*
X117550000Y-58199999D03*
X117550000Y-58699999D03*
X117550000Y-59199999D03*
X117550000Y-59699999D03*
D34*
X118550000Y-60699999D03*
X119050000Y-60699999D03*
X119550000Y-60699999D03*
X120050000Y-60699999D03*
X120550000Y-60699999D03*
D33*
X121550000Y-59699999D03*
X121550000Y-59199999D03*
X121550000Y-58699999D03*
X121550000Y-58199999D03*
X121550000Y-57699999D03*
D34*
X120550000Y-56699999D03*
X120050000Y-56699999D03*
X119550000Y-56699999D03*
X119050000Y-56699999D03*
X118550000Y-56699999D03*
D35*
X118900000Y-58049999D03*
X118900000Y-59349999D03*
X120200000Y-58049999D03*
X120200000Y-59349999D03*
D15*
X116500001Y-58700000D03*
X116500001Y-57900000D03*
X115700001Y-57899998D03*
X114900001Y-57899998D03*
X113200000Y-59500000D03*
X113200000Y-58700000D03*
X113199999Y-57900000D03*
X112399999Y-57900000D03*
X114900000Y-59499999D03*
X114100000Y-59499999D03*
D26*
X116300001Y-60499999D03*
X116300001Y-61899999D03*
D15*
X131300000Y-57699999D03*
X131300000Y-58499999D03*
X112400000Y-57100000D03*
X112400000Y-56300000D03*
X138500000Y-58350000D03*
X138500000Y-57550000D03*
X138500000Y-59250000D03*
X138500000Y-60050000D03*
D36*
X133525000Y-59375000D03*
X133525000Y-57925000D03*
X132375000Y-57925000D03*
X132375000Y-59375000D03*
D37*
X121275000Y-53925001D03*
X119825000Y-53925001D03*
X119825000Y-55075001D03*
X121275000Y-55075001D03*
D15*
X138600000Y-54150000D03*
X138600000Y-54950000D03*
X137750000Y-54950000D03*
X137750000Y-54150000D03*
X136400000Y-52200000D03*
X136400000Y-51400000D03*
X124750001Y-51450000D03*
X124750001Y-52250000D03*
X107750000Y-77250000D03*
X107750000Y-76450000D03*
X107750000Y-58100000D03*
X107750000Y-58900000D03*
D10*
G36*
X129750539Y-60482844D02*
X129382843Y-60850540D01*
X129015147Y-60482844D01*
X129382843Y-60115148D01*
X129750539Y-60482844D01*
X129750539Y-60482844D01*
G37*
G36*
X129184853Y-59917158D02*
X128817157Y-60284854D01*
X128449461Y-59917158D01*
X128817157Y-59549462D01*
X129184853Y-59917158D01*
X129184853Y-59917158D01*
G37*
D38*
X140500000Y-53825000D03*
X140500000Y-55175000D03*
D27*
X136925000Y-87525000D03*
X136275000Y-87525000D03*
X135625000Y-87525000D03*
X134975000Y-87525000D03*
X134325000Y-87525000D03*
X133675000Y-87525000D03*
X133025000Y-87525000D03*
X132375000Y-87525000D03*
X131725000Y-87525000D03*
X131075000Y-87525000D03*
X131075000Y-93275000D03*
X131725000Y-93275000D03*
X132375000Y-93275000D03*
X133025000Y-93275000D03*
X133675000Y-93275000D03*
X134325000Y-93275000D03*
X134975000Y-93275000D03*
X135625000Y-93275000D03*
X136275000Y-93275000D03*
X136925000Y-93275000D03*
D39*
X141650000Y-84175000D03*
X141650000Y-84825000D03*
X141650000Y-85475000D03*
X141650000Y-86125000D03*
X146050000Y-86125000D03*
X146050000Y-85475000D03*
X146050000Y-84825000D03*
X146050000Y-84175000D03*
D33*
X122800000Y-89450000D03*
X122800000Y-89950000D03*
X122800000Y-90450000D03*
X122800000Y-90950000D03*
X122800000Y-91450000D03*
D34*
X123800000Y-92450000D03*
X124300000Y-92450000D03*
X124800000Y-92450000D03*
X125300000Y-92450000D03*
X125800000Y-92450000D03*
D33*
X126800000Y-91450000D03*
X126800000Y-90950000D03*
X126800000Y-90450000D03*
X126800000Y-89950000D03*
X126800000Y-89450000D03*
D34*
X125800000Y-88450000D03*
X125300000Y-88450000D03*
X124800000Y-88450000D03*
X124300000Y-88450000D03*
X123800000Y-88450000D03*
D35*
X124150000Y-89800000D03*
X124150000Y-91100000D03*
X125450000Y-89800000D03*
X125450000Y-91100000D03*
D40*
X112250000Y-91000000D03*
D41*
X112500000Y-88175000D03*
X112500000Y-93825000D03*
D15*
X120950000Y-88050000D03*
X120950000Y-88850000D03*
X143450000Y-87400000D03*
X144250000Y-87400000D03*
X120950000Y-90450000D03*
X120150000Y-90450000D03*
X121750000Y-91250001D03*
X120950000Y-91250001D03*
D26*
X147600000Y-85350000D03*
X147600000Y-83950000D03*
X140100000Y-83950000D03*
X140100000Y-85350000D03*
D15*
X118550000Y-92050000D03*
X118550000Y-92850000D03*
X119350000Y-89650001D03*
X119350000Y-88850001D03*
X118550000Y-88850001D03*
X118550000Y-88050001D03*
X121750000Y-94650000D03*
X120950000Y-94650000D03*
D25*
X125000000Y-95250000D03*
X126400000Y-95250000D03*
X125000000Y-93850000D03*
X126400000Y-93850000D03*
D15*
X123750000Y-95450000D03*
X122950000Y-95450000D03*
X123750000Y-93650000D03*
X122950000Y-93650000D03*
X123750000Y-94550000D03*
X122950000Y-94550000D03*
X142400000Y-97800000D03*
X143200000Y-97800000D03*
X139000000Y-85000000D03*
X139000000Y-85800000D03*
X134800000Y-84200000D03*
X135600000Y-84200000D03*
X134000000Y-85800000D03*
X133200000Y-85800000D03*
X133200000Y-95000000D03*
X133200000Y-95800000D03*
X134000000Y-85000000D03*
X133200000Y-85000000D03*
X132400000Y-95000000D03*
X132400000Y-95800000D03*
X133200000Y-97400000D03*
X133200000Y-96600000D03*
X134800000Y-85800000D03*
X134800000Y-85000000D03*
X111800000Y-92200000D03*
X112600000Y-92200000D03*
X121750000Y-90450000D03*
X121750000Y-89650000D03*
X120950000Y-89650000D03*
X120150000Y-89650000D03*
X118550000Y-91250000D03*
X118550000Y-90450000D03*
X118550000Y-89650000D03*
X117750000Y-89650000D03*
X120150000Y-91250000D03*
X119350000Y-91250000D03*
D26*
X121550000Y-92250000D03*
X121550000Y-93650000D03*
D15*
X117750000Y-88850000D03*
X117750000Y-88050000D03*
X135600000Y-85000000D03*
X135600000Y-85800000D03*
D37*
X126525000Y-85675000D03*
X125075000Y-85675000D03*
X125075000Y-86825000D03*
X126525000Y-86825000D03*
D36*
X137875000Y-85475000D03*
X137875000Y-84025000D03*
X136725000Y-84025000D03*
X136725000Y-85475000D03*
D18*
X141000000Y-88800000D03*
X139400000Y-88800000D03*
X145800000Y-88800000D03*
X144200000Y-88800000D03*
D15*
X138200000Y-89200000D03*
X138200000Y-88400000D03*
X143000000Y-89200000D03*
X143000000Y-88400000D03*
D42*
X144400000Y-94600000D03*
D43*
X147150000Y-96505000D03*
X147150000Y-95235000D03*
X147150000Y-93965000D03*
X147150000Y-92695000D03*
X141650000Y-92695000D03*
X141650000Y-93965000D03*
X141650000Y-95235000D03*
X141650000Y-96505000D03*
M02*
