G04 #@! TF.FileFunction,Profile,NP*
%FSLAX46Y46*%
G04 Gerber Fmt 4.6, Leading zero omitted, Abs format (unit mm)*
G04 Created by KiCad (PCBNEW 4.0.2-4+6225~38~ubuntu14.04.1-stable) date Sun 08 May 2016 20:50:49 BST*
%MOMM*%
G01*
G04 APERTURE LIST*
%ADD10C,0.100000*%
%ADD11C,0.150000*%
G04 APERTURE END LIST*
D10*
D11*
X113000000Y-99000000D02*
X152000000Y-99000000D01*
X105000000Y-60500000D02*
X105000000Y-51800000D01*
X105000000Y-74500000D02*
X105000000Y-61500000D01*
X105000000Y-75500000D02*
X105000000Y-80000000D01*
X160100000Y-60500000D02*
X160100000Y-51600000D01*
X160100000Y-61500000D02*
X160500000Y-61500000D01*
X160100000Y-61600000D02*
X160100000Y-61500000D01*
X160100000Y-74500000D02*
X160100000Y-61600000D01*
X160100000Y-75500000D02*
X160100000Y-79700000D01*
X160100000Y-74500000D02*
X160700000Y-74500000D01*
X154000000Y-86500000D02*
X154000000Y-85000000D01*
X154000000Y-94500000D02*
X154000000Y-87500000D01*
X154000000Y-95500000D02*
X154000000Y-97000000D01*
X110000000Y-86500000D02*
X110000000Y-86000000D01*
X110000000Y-94500000D02*
X110000000Y-87500000D01*
X110000000Y-95500000D02*
X110000000Y-96000000D01*
X156000000Y-86500000D02*
X164100000Y-86500000D01*
X164000000Y-87500000D02*
X155600000Y-87500000D01*
X155500000Y-87500000D02*
X156000000Y-87500000D01*
X170000000Y-51000000D02*
X170000000Y-99000000D01*
X166000000Y-50000000D02*
X169000000Y-50000000D01*
X165000000Y-59500000D02*
X165000000Y-51000000D01*
X162900000Y-60500000D02*
X164000000Y-60500000D01*
X163000000Y-61500000D02*
X164000000Y-61500000D01*
X165000000Y-62500000D02*
X165000000Y-73600000D01*
X160600000Y-74500000D02*
X164000000Y-74500000D01*
X164000000Y-75500000D02*
X160700000Y-75500000D01*
X165000000Y-85500000D02*
X165000000Y-76400000D01*
X165000000Y-93500000D02*
X165000000Y-88500000D01*
X164000000Y-94500000D02*
X155500000Y-94500000D01*
X155500000Y-95500000D02*
X164000000Y-95500000D01*
X165000000Y-99000000D02*
X165000000Y-96500000D01*
X166000000Y-100000000D02*
X169000000Y-100000000D01*
X170000000Y-51000000D02*
G75*
G03X169000000Y-50000000I-1000000J0D01*
G01*
X166000000Y-50000000D02*
G75*
G03X165000000Y-51000000I0J-1000000D01*
G01*
X164000000Y-60500000D02*
G75*
G03X165000000Y-59500000I0J1000000D01*
G01*
X165000000Y-62500000D02*
G75*
G03X164000000Y-61500000I-1000000J0D01*
G01*
X164000000Y-74500000D02*
G75*
G03X165000000Y-73500000I0J1000000D01*
G01*
X165000000Y-76500000D02*
G75*
G03X164000000Y-75500000I-1000000J0D01*
G01*
X169000000Y-100000000D02*
G75*
G03X170000000Y-99000000I0J1000000D01*
G01*
X165000000Y-99000000D02*
G75*
G03X166000000Y-100000000I1000000J0D01*
G01*
X165000000Y-96500000D02*
G75*
G03X164000000Y-95500000I-1000000J0D01*
G01*
X164000000Y-94500000D02*
G75*
G03X165000000Y-93500000I0J1000000D01*
G01*
X165000000Y-88500000D02*
G75*
G03X164000000Y-87500000I-1000000J0D01*
G01*
X164000000Y-86500000D02*
G75*
G03X165000000Y-85500000I0J1000000D01*
G01*
X100000000Y-59500000D02*
X100000000Y-51000000D01*
X105000000Y-60500000D02*
X101000000Y-60500000D01*
X101000000Y-61500000D02*
X105000000Y-61500000D01*
X100000000Y-73500000D02*
X100000000Y-62500000D01*
X105000000Y-74500000D02*
X101000000Y-74500000D01*
X101000000Y-75500000D02*
X105000000Y-75500000D01*
X100000000Y-85500000D02*
X100000000Y-76500000D01*
X110000000Y-86500000D02*
X101000000Y-86500000D01*
X101000000Y-87500000D02*
X110000000Y-87500000D01*
X100000000Y-93500000D02*
X100000000Y-88500000D01*
X110000000Y-94500000D02*
X101000000Y-94500000D01*
X101000000Y-95500000D02*
X110000000Y-95500000D01*
X100000000Y-99000000D02*
X100000000Y-96500000D01*
X96000000Y-100000000D02*
X99000000Y-100000000D01*
X95000000Y-51000000D02*
X95000000Y-99000000D01*
X96000000Y-50000000D02*
X99000000Y-50000000D01*
X101000000Y-95500000D02*
G75*
G03X100000000Y-96500000I0J-1000000D01*
G01*
X100000000Y-93500000D02*
G75*
G03X101000000Y-94500000I1000000J0D01*
G01*
X101000000Y-87500000D02*
G75*
G03X100000000Y-88500000I0J-1000000D01*
G01*
X100000000Y-85500000D02*
G75*
G03X101000000Y-86500000I1000000J0D01*
G01*
X101000000Y-75500000D02*
G75*
G03X100000000Y-76500000I0J-1000000D01*
G01*
X100000000Y-73500000D02*
G75*
G03X101000000Y-74500000I1000000J0D01*
G01*
X100000000Y-59500000D02*
G75*
G03X101000000Y-60500000I1000000J0D01*
G01*
X101000000Y-61500000D02*
G75*
G03X100000000Y-62500000I0J-1000000D01*
G01*
X100000000Y-51000000D02*
G75*
G03X99000000Y-50000000I-1000000J0D01*
G01*
X96000000Y-50000000D02*
G75*
G03X95000000Y-51000000I0J-1000000D01*
G01*
X95000000Y-99000000D02*
G75*
G03X96000000Y-100000000I1000000J0D01*
G01*
X99000000Y-100000000D02*
G75*
G03X100000000Y-99000000I0J1000000D01*
G01*
X160100000Y-75500000D02*
X160800000Y-75500000D01*
X154000000Y-94500000D02*
X155500000Y-94500000D01*
X154000000Y-95500000D02*
X155500000Y-95500000D01*
X154000000Y-87500000D02*
X155500000Y-87500000D01*
X154000000Y-86500000D02*
X156000000Y-86500000D01*
X162500000Y-61500000D02*
X163000000Y-61500000D01*
X162600000Y-60500000D02*
X163000000Y-60500000D01*
X160500000Y-61500000D02*
X162500000Y-61500000D01*
X160100000Y-60500000D02*
X162600000Y-60500000D01*
X159300001Y-80500001D02*
G75*
G03X160100000Y-79700000I-1J800000D01*
G01*
X160100000Y-51600000D02*
X160100000Y-51300000D01*
X160100001Y-51299999D02*
G75*
G03X159300000Y-50500000I-800000J-1D01*
G01*
X105500000Y-50500000D02*
X130000000Y-50500000D01*
X105000000Y-51800000D02*
X105000000Y-51000000D01*
X105499999Y-50500001D02*
G75*
G03X105000000Y-51000000I0J-499999D01*
G01*
X105500000Y-80500000D02*
X150000000Y-80500000D01*
X105000002Y-80000002D02*
G75*
G03X105500000Y-80500000I499998J0D01*
G01*
X159300000Y-50500000D02*
X155000000Y-50500000D01*
X159300000Y-80500000D02*
X155000000Y-80500000D01*
X150000000Y-50500000D02*
X130000000Y-50500000D01*
X155000000Y-50500000D02*
X150000000Y-50500000D01*
X150000000Y-80500000D02*
X155000000Y-80500000D01*
X110000000Y-96000000D02*
G75*
G03X113000000Y-99000000I3000000J0D01*
G01*
X113000000Y-83000000D02*
X114000000Y-83000000D01*
X113000000Y-83000000D02*
G75*
G03X110000000Y-86000000I0J-3000000D01*
G01*
X152000000Y-99000000D02*
G75*
G03X154000000Y-97000000I0J2000000D01*
G01*
X154000000Y-85000000D02*
G75*
G03X152000000Y-83000000I-2000000J0D01*
G01*
X152000000Y-83000000D02*
X114000000Y-83000000D01*
M02*
