G04 #@! TF.FileFunction,Soldermask,Top*
%FSLAX46Y46*%
G04 Gerber Fmt 4.6, Leading zero omitted, Abs format (unit mm)*
G04 Created by KiCad (PCBNEW 4.0.2-4+6225~38~ubuntu14.04.1-stable) date Sun 08 May 2016 20:50:49 BST*
%MOMM*%
G01*
G04 APERTURE LIST*
%ADD10C,0.100000*%
%ADD11C,0.150000*%
%ADD12C,1.000000*%
%ADD13R,4.000000X3.400000*%
%ADD14R,0.450000X0.900000*%
%ADD15R,5.080000X2.286000*%
%ADD16R,5.080000X2.413000*%
%ADD17R,0.400000X0.200000*%
%ADD18R,0.200000X0.400000*%
%ADD19C,1.524000*%
%ADD20R,0.520000X0.520000*%
%ADD21C,1.200000*%
%ADD22C,1.600000*%
%ADD23R,1.150000X1.450000*%
%ADD24R,1.450000X1.150000*%
%ADD25R,0.950000X1.000000*%
%ADD26R,1.600000X1.000000*%
%ADD27R,0.400000X0.500000*%
%ADD28R,1.800000X0.700000*%
%ADD29R,1.800000X0.800000*%
%ADD30R,1.100000X0.600000*%
%ADD31R,0.600000X1.000000*%
%ADD32R,0.750000X0.900000*%
%ADD33R,0.900000X0.750000*%
%ADD34C,2.200000*%
%ADD35R,0.400000X1.350000*%
%ADD36O,1.000000X1.250000*%
%ADD37R,1.800000X1.900000*%
%ADD38R,1.575000X1.900000*%
%ADD39O,1.000000X1.900000*%
%ADD40R,0.300000X0.550000*%
%ADD41R,0.550000X0.300000*%
%ADD42R,2.002000X2.002000*%
%ADD43R,0.750000X0.300000*%
%ADD44R,0.300000X0.750000*%
%ADD45R,2.602000X2.602000*%
%ADD46C,0.787000*%
%ADD47C,1.000000*%
%ADD48R,0.850000X0.950000*%
%ADD49R,0.950000X0.850000*%
%ADD50R,1.300000X0.750000*%
%ADD51R,1.450000X0.450000*%
%ADD52O,3.800000X1.600000*%
%ADD53C,1.250000*%
%ADD54R,4.200000X1.270000*%
%ADD55R,4.700000X1.350000*%
%ADD56R,3.400000X4.000000*%
%ADD57R,0.900000X0.450000*%
G04 APERTURE END LIST*
D10*
D11*
X115840000Y-52950000D02*
X115880000Y-52880000D01*
X115630000Y-53000000D02*
X115840000Y-52950000D01*
X115620000Y-52180000D02*
X115630000Y-53000000D01*
X115620000Y-52100000D02*
X115620000Y-52180000D01*
X115810000Y-52130000D02*
X115620000Y-52100000D01*
X119340000Y-52110000D02*
X119430000Y-52190000D01*
X119510000Y-52120000D02*
X119340000Y-52110000D01*
X119480000Y-52400000D02*
X119510000Y-52120000D01*
X119310000Y-52970000D02*
X119390000Y-52870000D01*
X119500000Y-52990000D02*
X119310000Y-52970000D01*
X119480000Y-52620000D02*
X119500000Y-52990000D01*
X121690000Y-52100000D02*
X121680000Y-52160000D01*
X121570000Y-52100000D02*
X121690000Y-52100000D01*
X121550000Y-52200000D02*
X121570000Y-52100000D01*
X121630000Y-52260000D02*
X121550000Y-52200000D01*
X121560000Y-52780000D02*
X121640000Y-52900000D01*
X121590000Y-52990000D02*
X121560000Y-52780000D01*
X121960000Y-52940000D02*
X121590000Y-52990000D01*
X124130000Y-52110000D02*
X123960000Y-52100000D01*
X124140000Y-52360000D02*
X124130000Y-52110000D01*
X123250000Y-54870000D02*
X123340000Y-55030000D01*
X123270000Y-55110000D02*
X123250000Y-54870000D01*
X124060000Y-55040000D02*
X123270000Y-55110000D01*
X123890000Y-55120000D02*
X124070000Y-55040000D01*
X124120000Y-55100000D02*
X123890000Y-55120000D01*
X124150000Y-54760000D02*
X124120000Y-55100000D01*
X124150000Y-57460000D02*
X124150000Y-57570000D01*
X123830000Y-57440000D02*
X124150000Y-57460000D01*
X123440000Y-57400000D02*
X123330000Y-57530000D01*
X123270000Y-57430000D02*
X123440000Y-57400000D01*
X123260000Y-57680000D02*
X123270000Y-57430000D01*
X123420000Y-61090000D02*
X123420000Y-61060000D01*
X123270000Y-60870000D02*
X123420000Y-61090000D01*
X123290000Y-61110000D02*
X123270000Y-60870000D01*
X123610000Y-61110000D02*
X123290000Y-61110000D01*
X124030000Y-61060000D02*
X123950000Y-61080000D01*
X124120000Y-61120000D02*
X124030000Y-61060000D01*
X124150000Y-60880000D02*
X124120000Y-61120000D01*
X123270000Y-63420000D02*
X123490000Y-63480000D01*
X123280000Y-63700000D02*
X123270000Y-63420000D01*
X124120000Y-63420000D02*
X124000000Y-63440000D01*
X124130000Y-63710000D02*
X124120000Y-63420000D01*
X124120000Y-66420000D02*
X124150000Y-66320000D01*
X123930000Y-66410000D02*
X124120000Y-66420000D01*
X121640000Y-66430000D02*
X121810000Y-66410000D01*
X121610000Y-66210000D02*
X121640000Y-66430000D01*
X121630000Y-65560000D02*
X121800000Y-65580000D01*
X121620000Y-65770000D02*
X121630000Y-65560000D01*
X119290000Y-66410000D02*
X119080000Y-66440000D01*
X119200000Y-65630000D02*
X119290000Y-66410000D01*
X119300000Y-65810000D02*
X119190000Y-65610000D01*
X119300000Y-65560000D02*
X119300000Y-65810000D01*
X118940000Y-65550000D02*
X119300000Y-65560000D01*
X115840000Y-65570000D02*
X116320000Y-65750000D01*
X115640000Y-65570000D02*
X115840000Y-65570000D01*
X115600000Y-66440000D02*
X115640000Y-65570000D01*
X115830000Y-66430000D02*
X115600000Y-66440000D01*
X113260000Y-65560000D02*
X113100000Y-65580000D01*
X113240000Y-66320000D02*
X113260000Y-65560000D01*
X113290000Y-66280000D02*
X113240000Y-66320000D01*
X113320000Y-66430000D02*
X113290000Y-66280000D01*
X110950000Y-66430000D02*
X113320000Y-66430000D01*
X110770000Y-66400000D02*
X110950000Y-66430000D01*
X110770000Y-66300000D02*
X110770000Y-66400000D01*
X111630000Y-63680000D02*
X110770000Y-66300000D01*
X111610000Y-63430000D02*
X111630000Y-63680000D01*
X110920000Y-63440000D02*
X111610000Y-63430000D01*
X110770000Y-63450000D02*
X110920000Y-63440000D01*
X110760000Y-63640000D02*
X110770000Y-63450000D01*
X110760000Y-60930000D02*
X110810000Y-61050000D01*
X110730000Y-61120000D02*
X110760000Y-60930000D01*
X111030000Y-61110000D02*
X110730000Y-61120000D01*
X111630000Y-61020000D02*
X111630000Y-60870000D01*
X111410000Y-61110000D02*
X111630000Y-61020000D01*
X111670000Y-61120000D02*
X111410000Y-61110000D01*
X111530000Y-57500000D02*
X111660000Y-57610000D01*
X111650000Y-57430000D02*
X111530000Y-57500000D01*
X111400000Y-57410000D02*
X111650000Y-57430000D01*
X110890000Y-57420000D02*
X110960000Y-57420000D01*
X110770000Y-57600000D02*
X110890000Y-57420000D01*
X110760000Y-57410000D02*
X110770000Y-57600000D01*
D12*
X116010000Y-52520000D02*
X119060000Y-52540000D01*
X123730000Y-52530000D02*
X122000000Y-52520000D01*
X123710000Y-54650000D02*
X123720000Y-52520000D01*
X123720000Y-60650000D02*
X123720000Y-57860000D01*
X123700000Y-66020000D02*
X123710000Y-63850000D01*
X122040000Y-66000000D02*
X123750000Y-66010000D01*
X116030000Y-66020000D02*
X118850000Y-66020000D01*
X111180000Y-66000000D02*
X112870000Y-66000000D01*
X111190000Y-63860000D02*
X111180000Y-66000000D01*
X111190000Y-57870000D02*
X111190000Y-60670000D01*
D10*
X124210000Y-55170000D02*
X123210000Y-55170000D01*
X124210000Y-52040000D02*
X124210000Y-55170000D01*
X123780000Y-52040000D02*
X124210000Y-52040000D01*
X122050000Y-52040000D02*
X123780000Y-52040000D01*
X121510000Y-52040000D02*
X122050000Y-52040000D01*
X121510000Y-53040000D02*
X121510000Y-52040000D01*
X123210000Y-53040000D02*
X121510000Y-53040000D01*
X123210000Y-55170000D02*
X123210000Y-53040000D01*
X123210000Y-61170000D02*
X124210000Y-61170000D01*
X124210000Y-57370000D02*
X124210000Y-61170000D01*
X123210000Y-57370000D02*
X124210000Y-57370000D01*
X123210000Y-57490000D02*
X123210000Y-57370000D01*
X123210000Y-58610000D02*
X123210000Y-57490000D01*
X123210000Y-59290000D02*
X123210000Y-58610000D01*
X123210000Y-59870000D02*
X123210000Y-59290000D01*
X123210000Y-59930000D02*
X123210000Y-59870000D01*
X123210000Y-61170000D02*
X123210000Y-59930000D01*
X110840000Y-55040000D02*
X110750000Y-54990000D01*
X110750000Y-55090000D02*
X110840000Y-55040000D01*
X111020000Y-55120000D02*
X110750000Y-55090000D01*
X111470000Y-55130000D02*
X111380000Y-55090000D01*
X111490000Y-55020000D02*
X111470000Y-55130000D01*
X111540000Y-55120000D02*
X111490000Y-55020000D01*
X111560000Y-54950000D02*
X111540000Y-55120000D01*
X111630000Y-55120000D02*
X111560000Y-54950000D01*
X111630000Y-54720000D02*
X111630000Y-55120000D01*
D12*
X111160000Y-52730000D02*
X111160000Y-54670000D01*
D10*
X110880000Y-52890000D02*
X110790000Y-52850000D01*
X110720000Y-52990000D02*
X110880000Y-52890000D01*
X111050000Y-52970000D02*
X110720000Y-52990000D01*
X110750000Y-53050000D02*
X111220000Y-53050000D01*
X110740000Y-52700000D02*
X110750000Y-53050000D01*
X110990000Y-52080000D02*
X111010000Y-52120000D01*
X110880000Y-52170000D02*
X110940000Y-52080000D01*
X110820000Y-52090000D02*
X110880000Y-52170000D01*
X110760000Y-52340000D02*
X110820000Y-52090000D01*
X110750000Y-52090000D02*
X110760000Y-52340000D01*
X113020000Y-52960000D02*
X113260000Y-52860000D01*
X113300000Y-52970000D02*
X113020000Y-52960000D01*
X113300000Y-52680000D02*
X113300000Y-52970000D01*
X113120000Y-52220000D02*
X113120000Y-52090000D01*
X113230000Y-52090000D02*
X113120000Y-52220000D01*
X113290000Y-52320000D02*
X113230000Y-52090000D01*
X113300000Y-52090000D02*
X113290000Y-52320000D01*
D12*
X111210000Y-52540000D02*
X112850000Y-52540000D01*
D10*
X123210000Y-63370000D02*
X123210000Y-65500000D01*
X124210000Y-63370000D02*
X123210000Y-63370000D01*
X124220000Y-66500000D02*
X124210000Y-63370000D01*
X115560000Y-53040000D02*
X115560000Y-52040000D01*
X119560000Y-53040000D02*
X115560000Y-53040000D01*
X119560000Y-52040000D02*
X119560000Y-53040000D01*
X115560000Y-52040000D02*
X119560000Y-52040000D01*
X113360000Y-53040000D02*
X111700000Y-53040000D01*
X113360000Y-52040000D02*
X113360000Y-53040000D01*
X115560000Y-66500000D02*
X119360000Y-66500000D01*
X119360000Y-65500000D02*
X115560000Y-65500000D01*
X121560000Y-65500000D02*
X124210000Y-65500000D01*
X124210000Y-66500000D02*
X121560000Y-66500000D01*
X124210000Y-65500000D02*
X124210000Y-66500000D01*
X121560000Y-65500000D02*
X121560000Y-66500000D01*
X119360000Y-65500000D02*
X119360000Y-66500000D01*
X115560000Y-65500000D02*
X115560000Y-66500000D01*
X110700000Y-66500000D02*
X113360000Y-66500000D01*
X110700000Y-65500000D02*
X110700000Y-66500000D01*
X113360000Y-65500000D02*
X110700000Y-65500000D01*
X113360000Y-66500000D02*
X113360000Y-65500000D01*
X110700000Y-57920000D02*
X110700000Y-57370000D01*
X110700000Y-58510000D02*
X110700000Y-57920000D01*
X110700000Y-58710000D02*
X110700000Y-58510000D01*
X110700000Y-59580000D02*
X110700000Y-58710000D01*
X110700000Y-60590000D02*
X110700000Y-59580000D01*
X110700000Y-60890000D02*
X110700000Y-60590000D01*
X110700000Y-61060000D02*
X110700000Y-60890000D01*
X110700000Y-61170000D02*
X110700000Y-61060000D01*
X111700000Y-60770000D02*
X111700000Y-61170000D01*
X111700000Y-60230000D02*
X111700000Y-60770000D01*
X111700000Y-59650000D02*
X111700000Y-60230000D01*
X111700000Y-59200000D02*
X111700000Y-59650000D01*
X111700000Y-58850000D02*
X111700000Y-59200000D01*
X111700000Y-58350000D02*
X111700000Y-58850000D01*
X111700000Y-58020000D02*
X111700000Y-58350000D01*
X111700000Y-57370000D02*
X111700000Y-58020000D01*
X111700000Y-52350000D02*
X111700000Y-52040000D01*
X111700000Y-52560000D02*
X111700000Y-52350000D01*
X111700000Y-52700000D02*
X111700000Y-52560000D01*
X111700000Y-54690000D02*
X111700000Y-52700000D01*
X111700000Y-55170000D02*
X111700000Y-54690000D01*
X110700000Y-52040000D02*
X110700000Y-55170000D01*
X110700000Y-52040000D02*
X113360000Y-52040000D01*
X110700000Y-55170000D02*
X111700000Y-55170000D01*
X110700000Y-57370000D02*
X111700000Y-57370000D01*
X110700000Y-61170000D02*
X111700000Y-61170000D01*
X111700000Y-66500000D02*
X110700000Y-66500000D01*
X111700000Y-63370000D02*
X111700000Y-66500000D01*
X110700000Y-63370000D02*
X111700000Y-63370000D01*
X110700000Y-66500000D02*
X110700000Y-63370000D01*
D11*
X121290000Y-84700000D02*
X121330000Y-84630000D01*
X121080000Y-84750000D02*
X121290000Y-84700000D01*
X121070000Y-83930000D02*
X121080000Y-84750000D01*
X121070000Y-83850000D02*
X121070000Y-83930000D01*
X121260000Y-83880000D02*
X121070000Y-83850000D01*
X124790000Y-83860000D02*
X124880000Y-83940000D01*
X124960000Y-83870000D02*
X124790000Y-83860000D01*
X124930000Y-84150000D02*
X124960000Y-83870000D01*
X124760000Y-84720000D02*
X124840000Y-84620000D01*
X124950000Y-84740000D02*
X124760000Y-84720000D01*
X124930000Y-84370000D02*
X124950000Y-84740000D01*
X127140000Y-83850000D02*
X127130000Y-83910000D01*
X127020000Y-83850000D02*
X127140000Y-83850000D01*
X127000000Y-83950000D02*
X127020000Y-83850000D01*
X127080000Y-84010000D02*
X127000000Y-83950000D01*
X127010000Y-84530000D02*
X127090000Y-84650000D01*
X127040000Y-84740000D02*
X127010000Y-84530000D01*
X127410000Y-84690000D02*
X127040000Y-84740000D01*
X129580000Y-83860000D02*
X129410000Y-83850000D01*
X129590000Y-84110000D02*
X129580000Y-83860000D01*
X128700000Y-86620000D02*
X128790000Y-86780000D01*
X128720000Y-86860000D02*
X128700000Y-86620000D01*
X129510000Y-86790000D02*
X128720000Y-86860000D01*
X129340000Y-86870000D02*
X129520000Y-86790000D01*
X129570000Y-86850000D02*
X129340000Y-86870000D01*
X129600000Y-86510000D02*
X129570000Y-86850000D01*
X129600000Y-89210000D02*
X129600000Y-89320000D01*
X129280000Y-89190000D02*
X129600000Y-89210000D01*
X128890000Y-89150000D02*
X128780000Y-89280000D01*
X128720000Y-89180000D02*
X128890000Y-89150000D01*
X128710000Y-89430000D02*
X128720000Y-89180000D01*
X128870000Y-92840000D02*
X128870000Y-92810000D01*
X128720000Y-92620000D02*
X128870000Y-92840000D01*
X128740000Y-92860000D02*
X128720000Y-92620000D01*
X129060000Y-92860000D02*
X128740000Y-92860000D01*
X129480000Y-92810000D02*
X129400000Y-92830000D01*
X129570000Y-92870000D02*
X129480000Y-92810000D01*
X129600000Y-92630000D02*
X129570000Y-92870000D01*
X128720000Y-95170000D02*
X128940000Y-95230000D01*
X128730000Y-95450000D02*
X128720000Y-95170000D01*
X129570000Y-95170000D02*
X129450000Y-95190000D01*
X129580000Y-95460000D02*
X129570000Y-95170000D01*
X129570000Y-98170000D02*
X129600000Y-98070000D01*
X129380000Y-98160000D02*
X129570000Y-98170000D01*
X127090000Y-98180000D02*
X127260000Y-98160000D01*
X127060000Y-97960000D02*
X127090000Y-98180000D01*
X127080000Y-97310000D02*
X127250000Y-97330000D01*
X127070000Y-97520000D02*
X127080000Y-97310000D01*
X124740000Y-98160000D02*
X124530000Y-98190000D01*
X124650000Y-97380000D02*
X124740000Y-98160000D01*
X124750000Y-97560000D02*
X124640000Y-97360000D01*
X124750000Y-97310000D02*
X124750000Y-97560000D01*
X124390000Y-97300000D02*
X124750000Y-97310000D01*
X121290000Y-97320000D02*
X121770000Y-97500000D01*
X121090000Y-97320000D02*
X121290000Y-97320000D01*
X121050000Y-98190000D02*
X121090000Y-97320000D01*
X121280000Y-98180000D02*
X121050000Y-98190000D01*
X118710000Y-97310000D02*
X118550000Y-97330000D01*
X118690000Y-98070000D02*
X118710000Y-97310000D01*
X118740000Y-98030000D02*
X118690000Y-98070000D01*
X118770000Y-98180000D02*
X118740000Y-98030000D01*
X116400000Y-98180000D02*
X118770000Y-98180000D01*
X116220000Y-98150000D02*
X116400000Y-98180000D01*
X116220000Y-98050000D02*
X116220000Y-98150000D01*
X117080000Y-95430000D02*
X116220000Y-98050000D01*
X117060000Y-95180000D02*
X117080000Y-95430000D01*
X116370000Y-95190000D02*
X117060000Y-95180000D01*
X116220000Y-95200000D02*
X116370000Y-95190000D01*
X116210000Y-95390000D02*
X116220000Y-95200000D01*
X116210000Y-92680000D02*
X116260000Y-92800000D01*
X116180000Y-92870000D02*
X116210000Y-92680000D01*
X116480000Y-92860000D02*
X116180000Y-92870000D01*
X117080000Y-92770000D02*
X117080000Y-92620000D01*
X116860000Y-92860000D02*
X117080000Y-92770000D01*
X117120000Y-92870000D02*
X116860000Y-92860000D01*
X116980000Y-89250000D02*
X117110000Y-89360000D01*
X117100000Y-89180000D02*
X116980000Y-89250000D01*
X116850000Y-89160000D02*
X117100000Y-89180000D01*
X116340000Y-89170000D02*
X116410000Y-89170000D01*
X116220000Y-89350000D02*
X116340000Y-89170000D01*
X116210000Y-89160000D02*
X116220000Y-89350000D01*
D12*
X121460000Y-84270000D02*
X124510000Y-84290000D01*
X129180000Y-84280000D02*
X127450000Y-84270000D01*
X129160000Y-86400000D02*
X129170000Y-84270000D01*
X129170000Y-92400000D02*
X129170000Y-89610000D01*
X129150000Y-97770000D02*
X129160000Y-95600000D01*
X127490000Y-97750000D02*
X129200000Y-97760000D01*
X121480000Y-97770000D02*
X124300000Y-97770000D01*
X116630000Y-97750000D02*
X118320000Y-97750000D01*
X116640000Y-95610000D02*
X116630000Y-97750000D01*
X116640000Y-89620000D02*
X116640000Y-92420000D01*
D10*
X129660000Y-86920000D02*
X128660000Y-86920000D01*
X129660000Y-83790000D02*
X129660000Y-86920000D01*
X129230000Y-83790000D02*
X129660000Y-83790000D01*
X127500000Y-83790000D02*
X129230000Y-83790000D01*
X126960000Y-83790000D02*
X127500000Y-83790000D01*
X126960000Y-84790000D02*
X126960000Y-83790000D01*
X128660000Y-84790000D02*
X126960000Y-84790000D01*
X128660000Y-86920000D02*
X128660000Y-84790000D01*
X128660000Y-92920000D02*
X129660000Y-92920000D01*
X129660000Y-89120000D02*
X129660000Y-92920000D01*
X128660000Y-89120000D02*
X129660000Y-89120000D01*
X128660000Y-89240000D02*
X128660000Y-89120000D01*
X128660000Y-90360000D02*
X128660000Y-89240000D01*
X128660000Y-91040000D02*
X128660000Y-90360000D01*
X128660000Y-91620000D02*
X128660000Y-91040000D01*
X128660000Y-91680000D02*
X128660000Y-91620000D01*
X128660000Y-92920000D02*
X128660000Y-91680000D01*
X116290000Y-86790000D02*
X116200000Y-86740000D01*
X116200000Y-86840000D02*
X116290000Y-86790000D01*
X116470000Y-86870000D02*
X116200000Y-86840000D01*
X116920000Y-86880000D02*
X116830000Y-86840000D01*
X116940000Y-86770000D02*
X116920000Y-86880000D01*
X116990000Y-86870000D02*
X116940000Y-86770000D01*
X117010000Y-86700000D02*
X116990000Y-86870000D01*
X117080000Y-86870000D02*
X117010000Y-86700000D01*
X117080000Y-86470000D02*
X117080000Y-86870000D01*
D12*
X116610000Y-84480000D02*
X116610000Y-86420000D01*
D10*
X116330000Y-84640000D02*
X116240000Y-84600000D01*
X116170000Y-84740000D02*
X116330000Y-84640000D01*
X116500000Y-84720000D02*
X116170000Y-84740000D01*
X116200000Y-84800000D02*
X116670000Y-84800000D01*
X116190000Y-84450000D02*
X116200000Y-84800000D01*
X116440000Y-83830000D02*
X116460000Y-83870000D01*
X116330000Y-83920000D02*
X116390000Y-83830000D01*
X116270000Y-83840000D02*
X116330000Y-83920000D01*
X116210000Y-84090000D02*
X116270000Y-83840000D01*
X116200000Y-83840000D02*
X116210000Y-84090000D01*
X118470000Y-84710000D02*
X118710000Y-84610000D01*
X118750000Y-84720000D02*
X118470000Y-84710000D01*
X118750000Y-84430000D02*
X118750000Y-84720000D01*
X118570000Y-83970000D02*
X118570000Y-83840000D01*
X118680000Y-83840000D02*
X118570000Y-83970000D01*
X118740000Y-84070000D02*
X118680000Y-83840000D01*
X118750000Y-83840000D02*
X118740000Y-84070000D01*
D12*
X116660000Y-84290000D02*
X118300000Y-84290000D01*
D10*
X128660000Y-95120000D02*
X128660000Y-97250000D01*
X129660000Y-95120000D02*
X128660000Y-95120000D01*
X129670000Y-98250000D02*
X129660000Y-95120000D01*
X121010000Y-84790000D02*
X121010000Y-83790000D01*
X125010000Y-84790000D02*
X121010000Y-84790000D01*
X125010000Y-83790000D02*
X125010000Y-84790000D01*
X121010000Y-83790000D02*
X125010000Y-83790000D01*
X118810000Y-84790000D02*
X117150000Y-84790000D01*
X118810000Y-83790000D02*
X118810000Y-84790000D01*
X121010000Y-98250000D02*
X124810000Y-98250000D01*
X124810000Y-97250000D02*
X121010000Y-97250000D01*
X127010000Y-97250000D02*
X129660000Y-97250000D01*
X129660000Y-98250000D02*
X127010000Y-98250000D01*
X129660000Y-97250000D02*
X129660000Y-98250000D01*
X127010000Y-97250000D02*
X127010000Y-98250000D01*
X124810000Y-97250000D02*
X124810000Y-98250000D01*
X121010000Y-97250000D02*
X121010000Y-98250000D01*
X116150000Y-98250000D02*
X118810000Y-98250000D01*
X116150000Y-97250000D02*
X116150000Y-98250000D01*
X118810000Y-97250000D02*
X116150000Y-97250000D01*
X118810000Y-98250000D02*
X118810000Y-97250000D01*
X116150000Y-89670000D02*
X116150000Y-89120000D01*
X116150000Y-90260000D02*
X116150000Y-89670000D01*
X116150000Y-90460000D02*
X116150000Y-90260000D01*
X116150000Y-91330000D02*
X116150000Y-90460000D01*
X116150000Y-92340000D02*
X116150000Y-91330000D01*
X116150000Y-92640000D02*
X116150000Y-92340000D01*
X116150000Y-92810000D02*
X116150000Y-92640000D01*
X116150000Y-92920000D02*
X116150000Y-92810000D01*
X117150000Y-92520000D02*
X117150000Y-92920000D01*
X117150000Y-91980000D02*
X117150000Y-92520000D01*
X117150000Y-91400000D02*
X117150000Y-91980000D01*
X117150000Y-90950000D02*
X117150000Y-91400000D01*
X117150000Y-90600000D02*
X117150000Y-90950000D01*
X117150000Y-90100000D02*
X117150000Y-90600000D01*
X117150000Y-89770000D02*
X117150000Y-90100000D01*
X117150000Y-89120000D02*
X117150000Y-89770000D01*
X117150000Y-84100000D02*
X117150000Y-83790000D01*
X117150000Y-84310000D02*
X117150000Y-84100000D01*
X117150000Y-84450000D02*
X117150000Y-84310000D01*
X117150000Y-86440000D02*
X117150000Y-84450000D01*
X117150000Y-86920000D02*
X117150000Y-86440000D01*
X116150000Y-83790000D02*
X116150000Y-86920000D01*
X116150000Y-83790000D02*
X118810000Y-83790000D01*
X116150000Y-86920000D02*
X117150000Y-86920000D01*
X116150000Y-89120000D02*
X117150000Y-89120000D01*
X116150000Y-92920000D02*
X117150000Y-92920000D01*
X117150000Y-98250000D02*
X116150000Y-98250000D01*
X117150000Y-95120000D02*
X117150000Y-98250000D01*
X116150000Y-95120000D02*
X117150000Y-95120000D01*
X116150000Y-98250000D02*
X116150000Y-95120000D01*
D13*
X127900000Y-54800000D03*
D14*
X125995000Y-57550000D03*
X127265000Y-57550000D03*
X128535000Y-57550000D03*
X129805000Y-57550000D03*
X129805000Y-52050000D03*
X128535000Y-52050000D03*
X127265000Y-52050000D03*
X125995000Y-52050000D03*
D15*
X107750000Y-74700000D03*
D16*
X107750000Y-79081500D03*
X107750000Y-70318500D03*
D15*
X107750000Y-56300000D03*
D16*
X107750000Y-60681500D03*
X107750000Y-51918500D03*
D17*
X127400000Y-74700000D03*
X127400000Y-75100000D03*
X127400000Y-75500000D03*
X127400000Y-75900000D03*
X127400000Y-76300000D03*
X127400000Y-76700000D03*
D18*
X127900000Y-77200000D03*
X128300000Y-77200000D03*
X128700000Y-77200000D03*
X129100000Y-77200000D03*
X129500000Y-77200000D03*
X129900000Y-77200000D03*
D17*
X130400000Y-76700000D03*
X130400000Y-76300000D03*
X130400000Y-75900000D03*
X130400000Y-75500000D03*
X130400000Y-75100000D03*
X130400000Y-74700000D03*
D18*
X129900000Y-74200000D03*
X129500000Y-74200000D03*
X129100000Y-74200000D03*
X128700000Y-74200000D03*
X128300000Y-74200000D03*
X127900000Y-74200000D03*
D19*
X132432233Y-53732233D03*
X135967767Y-57267767D03*
D20*
X118500000Y-63700000D03*
X117700000Y-63700000D03*
X134950000Y-70050000D03*
X134950000Y-70850000D03*
D21*
X154000000Y-65000000D03*
X154000000Y-58000000D03*
D22*
X151900000Y-63500000D03*
X151900000Y-61500000D03*
X151900000Y-59500000D03*
D21*
X154000000Y-56249999D03*
X154000000Y-51249999D03*
D22*
X151900000Y-54749999D03*
X151900000Y-52749999D03*
D23*
X145450000Y-51900000D03*
X147250000Y-51900000D03*
D24*
X146650000Y-56199999D03*
X146650000Y-54399999D03*
D20*
X148800000Y-77250000D03*
X148800000Y-76450000D03*
X148800000Y-73250000D03*
X148800000Y-72450000D03*
X148800000Y-69250000D03*
X148800000Y-68450000D03*
D25*
X147300000Y-58750000D03*
X145700000Y-58750000D03*
X147300000Y-60750000D03*
X145700000Y-60750000D03*
X147300000Y-62750000D03*
X145700000Y-62750000D03*
X147300000Y-64749999D03*
X145700000Y-64749999D03*
D26*
X144450000Y-54550000D03*
D27*
X145100000Y-53650000D03*
X144450000Y-53650000D03*
X143800000Y-53650000D03*
X143800000Y-55450000D03*
X144450000Y-55450000D03*
X145100000Y-55450000D03*
D28*
X112800000Y-69900000D03*
D29*
X112800000Y-71000000D03*
X112800000Y-72100000D03*
X112800000Y-73200000D03*
X112800000Y-74300000D03*
X112800000Y-75400000D03*
X112800000Y-76500000D03*
X112800000Y-77600000D03*
D28*
X112800000Y-78700000D03*
X122300000Y-69900000D03*
X122300000Y-78700000D03*
D29*
X122300000Y-71000000D03*
X122300000Y-72100000D03*
X122300000Y-73200000D03*
X122300000Y-74300000D03*
X122300000Y-75400000D03*
X122300000Y-76500000D03*
X122300000Y-77600000D03*
D30*
X142000000Y-61775001D03*
X142000000Y-60525001D03*
X142000000Y-59275001D03*
X142000000Y-58025001D03*
X139800000Y-58025001D03*
X139800000Y-59275001D03*
X139800000Y-60525001D03*
X139800000Y-61775001D03*
D21*
X154000001Y-79750000D03*
X154000001Y-66750000D03*
D22*
X151900001Y-78250000D03*
X151900001Y-76250000D03*
X151900001Y-74250000D03*
X151900001Y-72250000D03*
X151900001Y-70250000D03*
X151900001Y-68250000D03*
D31*
X147320000Y-77200000D03*
X145420000Y-77200000D03*
X146370000Y-79500000D03*
X147300000Y-72599999D03*
X145400000Y-72599999D03*
X146350000Y-74899999D03*
X147350000Y-68000000D03*
X145450000Y-68000000D03*
X146400000Y-70300000D03*
X143820000Y-77200000D03*
X141920000Y-77200000D03*
X142870000Y-79500000D03*
X143820000Y-72600000D03*
X141920000Y-72600000D03*
X142870000Y-74900000D03*
X143850000Y-68000000D03*
X141950000Y-68000000D03*
X142900000Y-70300000D03*
D10*
G36*
X136626345Y-53942894D02*
X137050609Y-54367158D01*
X136343503Y-55074264D01*
X135919239Y-54650000D01*
X136626345Y-53942894D01*
X136626345Y-53942894D01*
G37*
G36*
X135282842Y-52599391D02*
X135707106Y-53023655D01*
X135000000Y-53730761D01*
X134575736Y-53306497D01*
X135282842Y-52599391D01*
X135282842Y-52599391D01*
G37*
G36*
X134328248Y-54897488D02*
X134752512Y-55321752D01*
X134045406Y-56028858D01*
X133621142Y-55604594D01*
X134328248Y-54897488D01*
X134328248Y-54897488D01*
G37*
D20*
X146550000Y-76050000D03*
X147350000Y-76050000D03*
X146500000Y-71450000D03*
X147300000Y-71450000D03*
X146550000Y-66850000D03*
X147350000Y-66850000D03*
X144200000Y-79750000D03*
X145000000Y-79750000D03*
X144200000Y-75150000D03*
X145000000Y-75150000D03*
X144250000Y-70550000D03*
X145050000Y-70550000D03*
D32*
X143950000Y-52550000D03*
X142550000Y-52550000D03*
D20*
X142250000Y-76050000D03*
X143050000Y-76050000D03*
X142250000Y-71450000D03*
X143050000Y-71450000D03*
X142300000Y-66850000D03*
X143100000Y-66850000D03*
D33*
X142550000Y-53850000D03*
X142550000Y-55250000D03*
D20*
X143850000Y-76050000D03*
X144650000Y-76050000D03*
X143850000Y-71450000D03*
X144650000Y-71450000D03*
X144000000Y-66850000D03*
X144800000Y-66850000D03*
X149600001Y-76450000D03*
X149600001Y-77250000D03*
X149600000Y-72449999D03*
X149600000Y-73249999D03*
X149600000Y-68450000D03*
X149600000Y-69250000D03*
X148800000Y-78050000D03*
X149600000Y-78050000D03*
X148800000Y-74050000D03*
X149600000Y-74050000D03*
X148800000Y-70050000D03*
X149600000Y-70050000D03*
X143700000Y-58750000D03*
X144500000Y-58750000D03*
X143600000Y-60750000D03*
X144400000Y-60750000D03*
X143600000Y-62750000D03*
X144400000Y-62750000D03*
X143600001Y-64750000D03*
X144400001Y-64750000D03*
X150150000Y-61499999D03*
X149350000Y-61499999D03*
X137200000Y-52200001D03*
X137200000Y-51400001D03*
X137450000Y-57750000D03*
X137450000Y-56950000D03*
D34*
X107999999Y-65500000D03*
X139900000Y-65500000D03*
D20*
X150550000Y-53349999D03*
X150550000Y-54149999D03*
X149350000Y-59500000D03*
X150150000Y-59500000D03*
X150399999Y-68850000D03*
X150399999Y-69650000D03*
X150400000Y-72850001D03*
X150400000Y-73650001D03*
X150400000Y-76850000D03*
X150400000Y-77650000D03*
X149350000Y-63500000D03*
X150150000Y-63500000D03*
D35*
X136150000Y-76325000D03*
X136800000Y-76325000D03*
X135500000Y-76325000D03*
X134850000Y-76325000D03*
X137450000Y-76325000D03*
D36*
X138375000Y-76000000D03*
X133925000Y-76000000D03*
D37*
X137300000Y-79000000D03*
X135000000Y-79000000D03*
D38*
X139537500Y-79000000D03*
D39*
X140325000Y-79000000D03*
D38*
X132762500Y-79000000D03*
D39*
X131975000Y-79000000D03*
D20*
X124020000Y-73170000D03*
X124020000Y-73970000D03*
D10*
G36*
X135782304Y-62949999D02*
X136150000Y-62582303D01*
X136517696Y-62949999D01*
X136150000Y-63317695D01*
X135782304Y-62949999D01*
X135782304Y-62949999D01*
G37*
G36*
X136347990Y-63515685D02*
X136715686Y-63147989D01*
X137083382Y-63515685D01*
X136715686Y-63883381D01*
X136347990Y-63515685D01*
X136347990Y-63515685D01*
G37*
D20*
X134100000Y-70050000D03*
X134100000Y-70850000D03*
X131200000Y-76700000D03*
X131200000Y-77500000D03*
X126400000Y-74700000D03*
X126400000Y-75500000D03*
X126700000Y-68400000D03*
X126700000Y-69200000D03*
D10*
G36*
X136134314Y-62133382D02*
X135766618Y-61765686D01*
X136134314Y-61397990D01*
X136502010Y-61765686D01*
X136134314Y-62133382D01*
X136134314Y-62133382D01*
G37*
G36*
X136700000Y-61567696D02*
X136332304Y-61200000D01*
X136700000Y-60832304D01*
X137067696Y-61200000D01*
X136700000Y-61567696D01*
X136700000Y-61567696D01*
G37*
D20*
X146700000Y-57550001D03*
X147500000Y-57550001D03*
X128950000Y-78400000D03*
X128950000Y-79200000D03*
X124900000Y-67600000D03*
X125700000Y-67600000D03*
X130800000Y-60250000D03*
X130800000Y-59450000D03*
X134599999Y-58800000D03*
X134599999Y-59600000D03*
X133000000Y-56800000D03*
X132200000Y-56800000D03*
X115700001Y-56300000D03*
X115700001Y-57100000D03*
X115699999Y-58700000D03*
X114899999Y-58700000D03*
X116500000Y-59500000D03*
X115700000Y-59500000D03*
X113200000Y-60300000D03*
X113200000Y-61100000D03*
X114000000Y-57900000D03*
X114000000Y-57100000D03*
X113200000Y-57100000D03*
X113200000Y-56300000D03*
X116500000Y-62900000D03*
X115700000Y-62900000D03*
X140600000Y-75500000D03*
X140600000Y-76300000D03*
D32*
X119800000Y-63500000D03*
X121200000Y-63500000D03*
X119800000Y-62100000D03*
X121200000Y-62100000D03*
D20*
X118500000Y-61900001D03*
X117700000Y-61900001D03*
X118500000Y-62800000D03*
X117700000Y-62800000D03*
X142250000Y-63300000D03*
X141450000Y-63300000D03*
X124000000Y-78400000D03*
X124000000Y-77600000D03*
X124000000Y-75700000D03*
X124000000Y-76500000D03*
D40*
X133850000Y-62125000D03*
X133350000Y-62125000D03*
X132850000Y-62125000D03*
X132350000Y-62125000D03*
X131850000Y-62125000D03*
X131350000Y-62125000D03*
X130850000Y-62125000D03*
X130350000Y-62125000D03*
X129850000Y-62125000D03*
X129350000Y-62125000D03*
X128850000Y-62125000D03*
X128350000Y-62125000D03*
D41*
X127725000Y-62750000D03*
X127725000Y-63250000D03*
X127725000Y-63750000D03*
X127725000Y-64250000D03*
X127725000Y-64750000D03*
X127725000Y-65250000D03*
X127725000Y-65750000D03*
X127725000Y-66250000D03*
X127725000Y-66750000D03*
X127725000Y-67250000D03*
X127725000Y-67750000D03*
X127725000Y-68250000D03*
D40*
X128350000Y-68875000D03*
X128850000Y-68875000D03*
X129350000Y-68875000D03*
X129850000Y-68875000D03*
X130350000Y-68875000D03*
X130850000Y-68875000D03*
X131350000Y-68875000D03*
X131850000Y-68875000D03*
X132350000Y-68875000D03*
X132850000Y-68875000D03*
X133350000Y-68875000D03*
X133850000Y-68875000D03*
D41*
X134475000Y-68250000D03*
X134475000Y-67750000D03*
X134475000Y-67250000D03*
X134475000Y-66750000D03*
X134475000Y-66250000D03*
X134475000Y-65750000D03*
X134475000Y-65250000D03*
X134475000Y-64750000D03*
X134475000Y-64250000D03*
X134475000Y-63750000D03*
X134475000Y-63250000D03*
X134475000Y-62750000D03*
D42*
X132350000Y-64250000D03*
X129850000Y-64250000D03*
X132350000Y-66750000D03*
X129850000Y-66750000D03*
D43*
X117550000Y-57699999D03*
X117550000Y-58199999D03*
X117550000Y-58699999D03*
X117550000Y-59199999D03*
X117550000Y-59699999D03*
D44*
X118550000Y-60699999D03*
X119050000Y-60699999D03*
X119550000Y-60699999D03*
X120050000Y-60699999D03*
X120550000Y-60699999D03*
D43*
X121550000Y-59699999D03*
X121550000Y-59199999D03*
X121550000Y-58699999D03*
X121550000Y-58199999D03*
X121550000Y-57699999D03*
D44*
X120550000Y-56699999D03*
X120050000Y-56699999D03*
X119550000Y-56699999D03*
X119050000Y-56699999D03*
X118550000Y-56699999D03*
D45*
X119550000Y-58699999D03*
D20*
X116500001Y-58700000D03*
X116500001Y-57900000D03*
X115700001Y-57899998D03*
X114900001Y-57899998D03*
X113200000Y-59500000D03*
X113200000Y-58700000D03*
X113199999Y-57900000D03*
X112399999Y-57900000D03*
X114900000Y-59499999D03*
X114100000Y-59499999D03*
D33*
X116300001Y-60499999D03*
X116300001Y-61899999D03*
D46*
X140240000Y-73170000D03*
X138970000Y-73170000D03*
X140240000Y-71900000D03*
X138970000Y-71900000D03*
X140240000Y-70630000D03*
X138970000Y-70630000D03*
D47*
X139605000Y-74440000D03*
X140621000Y-69360000D03*
X138589000Y-69360000D03*
D20*
X131300000Y-57699999D03*
X131300000Y-58499999D03*
X112400000Y-57100000D03*
X112400000Y-56300000D03*
X138500000Y-58350000D03*
X138500000Y-57550000D03*
X138500000Y-59250000D03*
X138500000Y-60050000D03*
D48*
X133525000Y-59375000D03*
X133525000Y-57925000D03*
X132375000Y-57925000D03*
X132375000Y-59375000D03*
D49*
X121275000Y-53925001D03*
X119825000Y-53925001D03*
X119825000Y-55075001D03*
X121275000Y-55075001D03*
D20*
X138600000Y-54150000D03*
X138600000Y-54950000D03*
X137750000Y-54950000D03*
X137750000Y-54150000D03*
X136400000Y-52200000D03*
X136400000Y-51400000D03*
X124750001Y-51450000D03*
X124750001Y-52250000D03*
X107750000Y-77250000D03*
X107750000Y-76450000D03*
X107750000Y-58100000D03*
X107750000Y-58900000D03*
D10*
G36*
X129750539Y-60482844D02*
X129382843Y-60850540D01*
X129015147Y-60482844D01*
X129382843Y-60115148D01*
X129750539Y-60482844D01*
X129750539Y-60482844D01*
G37*
G36*
X129184853Y-59917158D02*
X128817157Y-60284854D01*
X128449461Y-59917158D01*
X128817157Y-59549462D01*
X129184853Y-59917158D01*
X129184853Y-59917158D01*
G37*
D50*
X140500000Y-53825000D03*
X140500000Y-55175000D03*
D47*
X124600000Y-70850000D03*
D35*
X136925000Y-87525000D03*
X136275000Y-87525000D03*
X135625000Y-87525000D03*
X134975000Y-87525000D03*
X134325000Y-87525000D03*
X133675000Y-87525000D03*
X133025000Y-87525000D03*
X132375000Y-87525000D03*
X131725000Y-87525000D03*
X131075000Y-87525000D03*
X131075000Y-93275000D03*
X131725000Y-93275000D03*
X132375000Y-93275000D03*
X133025000Y-93275000D03*
X133675000Y-93275000D03*
X134325000Y-93275000D03*
X134975000Y-93275000D03*
X135625000Y-93275000D03*
X136275000Y-93275000D03*
X136925000Y-93275000D03*
D51*
X141650000Y-84175000D03*
X141650000Y-84825000D03*
X141650000Y-85475000D03*
X141650000Y-86125000D03*
X146050000Y-86125000D03*
X146050000Y-85475000D03*
X146050000Y-84825000D03*
X146050000Y-84175000D03*
D43*
X122800000Y-89450000D03*
X122800000Y-89950000D03*
X122800000Y-90450000D03*
X122800000Y-90950000D03*
X122800000Y-91450000D03*
D44*
X123800000Y-92450000D03*
X124300000Y-92450000D03*
X124800000Y-92450000D03*
X125300000Y-92450000D03*
X125800000Y-92450000D03*
D43*
X126800000Y-91450000D03*
X126800000Y-90950000D03*
X126800000Y-90450000D03*
X126800000Y-89950000D03*
X126800000Y-89450000D03*
D44*
X125800000Y-88450000D03*
X125300000Y-88450000D03*
X124800000Y-88450000D03*
X124300000Y-88450000D03*
X123800000Y-88450000D03*
D45*
X124800000Y-90450000D03*
D52*
X151400000Y-96700000D03*
X151400000Y-85300000D03*
D53*
X151400000Y-93250000D03*
X151400000Y-88750000D03*
D22*
X149300000Y-92000000D03*
X149300000Y-90000000D03*
X149300000Y-87500000D03*
X149300000Y-94500000D03*
D54*
X112250000Y-91000000D03*
D55*
X112500000Y-88175000D03*
X112500000Y-93825000D03*
D20*
X120950000Y-88050000D03*
X120950000Y-88850000D03*
X143450000Y-87400000D03*
X144250000Y-87400000D03*
X120950000Y-90450000D03*
X120150000Y-90450000D03*
X121750000Y-91250001D03*
X120950000Y-91250001D03*
D33*
X147600000Y-85350000D03*
X147600000Y-83950000D03*
X140100000Y-83950000D03*
X140100000Y-85350000D03*
D20*
X118550000Y-92050000D03*
X118550000Y-92850000D03*
X119350000Y-89650001D03*
X119350000Y-88850001D03*
X118550000Y-88850001D03*
X118550000Y-88050001D03*
X121750000Y-94650000D03*
X120950000Y-94650000D03*
D32*
X125000000Y-95250000D03*
X126400000Y-95250000D03*
X125000000Y-93850000D03*
X126400000Y-93850000D03*
D20*
X123750000Y-95450000D03*
X122950000Y-95450000D03*
X123750000Y-93650000D03*
X122950000Y-93650000D03*
X123750000Y-94550000D03*
X122950000Y-94550000D03*
X142400000Y-97800000D03*
X143200000Y-97800000D03*
X139000000Y-85000000D03*
X139000000Y-85800000D03*
X134800000Y-84200000D03*
X135600000Y-84200000D03*
X134000000Y-85800000D03*
X133200000Y-85800000D03*
X133200000Y-95000000D03*
X133200000Y-95800000D03*
X134000000Y-85000000D03*
X133200000Y-85000000D03*
X132400000Y-95000000D03*
X132400000Y-95800000D03*
X133200000Y-97400000D03*
X133200000Y-96600000D03*
X134800000Y-85800000D03*
X134800000Y-85000000D03*
X111800000Y-92200000D03*
X112600000Y-92200000D03*
X121750000Y-90450000D03*
X121750000Y-89650000D03*
X120950000Y-89650000D03*
X120150000Y-89650000D03*
X118550000Y-91250000D03*
X118550000Y-90450000D03*
X118550000Y-89650000D03*
X117750000Y-89650000D03*
X120150000Y-91250000D03*
X119350000Y-91250000D03*
D33*
X121550000Y-92250000D03*
X121550000Y-93650000D03*
D46*
X135930000Y-97240000D03*
X135930000Y-95970000D03*
X137200000Y-97240000D03*
X137200000Y-95970000D03*
X138470000Y-97240000D03*
X138470000Y-95970000D03*
D47*
X134660000Y-96605000D03*
X139740000Y-97621000D03*
X139740000Y-95589000D03*
D20*
X117750000Y-88850000D03*
X117750000Y-88050000D03*
X135600000Y-85000000D03*
X135600000Y-85800000D03*
D49*
X126525000Y-85675000D03*
X125075000Y-85675000D03*
X125075000Y-86825000D03*
X126525000Y-86825000D03*
D48*
X137875000Y-85475000D03*
X137875000Y-84025000D03*
X136725000Y-84025000D03*
X136725000Y-85475000D03*
D25*
X141000000Y-88800000D03*
X139400000Y-88800000D03*
X145800000Y-88800000D03*
X144200000Y-88800000D03*
D20*
X138200000Y-89200000D03*
X138200000Y-88400000D03*
X143000000Y-89200000D03*
X143000000Y-88400000D03*
D56*
X144400000Y-94600000D03*
D57*
X147150000Y-96505000D03*
X147150000Y-95235000D03*
X147150000Y-93965000D03*
X147150000Y-92695000D03*
X141650000Y-92695000D03*
X141650000Y-93965000D03*
X141650000Y-95235000D03*
X141650000Y-96505000D03*
M02*
