M48
;DRILL file {KiCad 4.0.2-4+6225~38~ubuntu14.04.1-stable} date Sun 08 May 2016 20:50:56 BST
;FORMAT={-:-/ absolute / metric / decimal}
FMAT,2
METRIC,TZ
T1C0.300
T2C0.400
T3C0.600
T4C0.650
T5C0.800
T6C1.000
T7C1.050
T8C1.000
T9C1.200
T10C1.250
T11C2.200
%
G90
G05
M71
T1
X105.62Y-51.22
X105.62Y-52.62
X105.62Y-60.02
X105.62Y-61.42
X105.67Y-71.02
X105.67Y-78.42
X105.67Y-79.82
X105.67Y-69.62
X106.3Y-53.92
X106.3Y-62.62
X106.3Y-68.22
X106.3Y-76.92
X106.3Y-58.42
X106.3Y-72.32
X106.72Y-51.22
X106.72Y-52.62
X106.72Y-60.02
X106.72Y-61.42
X106.77Y-69.62
X106.77Y-78.42
X106.77Y-79.82
X106.77Y-71.02
X107.72Y-51.22
X107.72Y-52.62
X107.72Y-60.02
X107.72Y-61.42
X107.77Y-71.02
X107.77Y-69.67
X107.77Y-78.42
X107.77Y-79.82
X108.82Y-51.22
X108.82Y-52.62
X108.82Y-60.02
X108.82Y-61.42
X108.87Y-69.62
X108.87Y-71.02
X108.87Y-78.42
X108.87Y-79.82
X109.3Y-53.9
X109.3Y-58.4
X109.3Y-62.6
X109.3Y-68.2
X109.3Y-72.3
X109.3Y-76.9
X109.82Y-51.22
X109.82Y-52.62
X109.82Y-60.02
X109.82Y-61.42
X109.87Y-69.62
X109.87Y-78.42
X109.87Y-79.82
X109.87Y-71.02
X110.2Y-72.95
X110.7Y-88.2
X110.7Y-89.6
X110.7Y-92.4
X110.7Y-93.9
X110.75Y-86.5
X110.75Y-95.5
X110.8Y-70.6
X111.15Y-52.5
X111.15Y-54.6
X111.15Y-63.95
X111.15Y-66.
X111.2Y-56.95
X111.2Y-57.85
X111.2Y-55.55
X111.25Y-59.4
X111.25Y-60.7
X111.25Y-75.1
X111.3Y-62.3
X111.9Y-88.2
X111.9Y-93.9
X112.245Y-69.9
X112.245Y-72.095
X112.8Y-66.
X112.95Y-52.55
X113.Y-54.8
X113.1Y-88.2
X113.1Y-93.9
X113.2Y-62.05
X113.2Y-64.
X113.34Y-69.9
X113.34Y-72.1
X113.75Y-83.75
X113.75Y-86.5
X113.75Y-95.5
X113.75Y-98.25
X113.8Y-89.6
X113.8Y-92.4
X114.1Y-60.4
X114.3Y-88.2
X114.3Y-93.9
X114.5Y-66.05
X114.55Y-52.55
X114.8Y-54.85
X114.8Y-62.9
X114.9Y-69.3
X114.9Y-71.85
X114.9Y-74.3
X114.9Y-76.85
X114.9Y-79.3
X115.2Y-60.4
X115.35Y-90.45
X115.4Y-64.65
X115.4Y-88.2
X116.Y-66.
X116.1Y-52.5
X116.5Y-94.
X116.5Y-63.8
X116.6Y-54.8
X116.65Y-84.3
X116.65Y-86.4
X116.65Y-89.6
X116.65Y-92.4
X116.65Y-97.75
X116.95Y-87.35
X116.95Y-88.75
X117.25Y-56.45
X117.4Y-66.05
X117.45Y-52.5
X117.45Y-69.3
X117.45Y-71.85
X117.45Y-74.3
X117.45Y-79.3
X117.45Y-76.85
X117.55Y-60.75
X117.7Y-64.6
X118.25Y-84.3
X118.25Y-97.75
X118.5Y-54.85
X118.5Y-95.5
X118.55Y-93.65
X118.75Y-57.85
X118.8Y-59.55
X118.9Y-66.05
X118.95Y-52.5
X119.Y-86.
X119.15Y-62.8
X119.35Y-88.05
X119.55Y-58.65
X119.9Y-69.3
X119.9Y-71.85
X119.9Y-74.3
X119.9Y-76.85
X119.9Y-79.3
X120.Y-84.25
X120.Y-98.
X120.15Y-57.85
X120.15Y-59.55
X120.15Y-94.65
X120.25Y-96.5
X120.5Y-52.55
X120.5Y-64.6
X120.5Y-66.05
X120.95Y-87.3
X121.55Y-84.3
X121.6Y-97.75
X121.75Y-95.6
X122.Y-66.
X122.Y-86.
X122.1Y-52.55
X122.3Y-64.6
X122.5Y-54.
X122.5Y-56.7
X122.5Y-57.7
X122.5Y-58.7
X122.5Y-67.8
X122.8Y-88.7
X122.8Y-92.5
X122.85Y-96.3
X123.7Y-52.55
X123.7Y-60.3
X123.75Y-54.65
X123.75Y-96.3
X123.8Y-66.
X123.95Y-85.7
X123.95Y-87.4
X124.02Y-72.32
X124.05Y-51.45
X124.15Y-89.8
X124.15Y-91.15
X124.25Y-97.75
X124.4Y-56.2
X124.5Y-84.3
X124.7Y-78.4
X124.8Y-75.7
X125.Y-73.35
X125.Y-96.3
X125.15Y-53.28
X125.2Y-65.25
X125.4Y-89.8
X125.4Y-91.15
X125.45Y-63.9
X125.5Y-74.7
X125.6Y-62.7
X125.7Y-66.8
X125.75Y-68.4
X125.75Y-69.4
X126.Y-84.25
X126.Y-98.
X126.1Y-71.65
X126.15Y-64.5
X126.4Y-76.55
X126.4Y-96.3
X126.5Y-53.75
X126.55Y-57.55
X126.6Y-66.9
X126.75Y-60.8
X126.8Y-92.1
X127.15Y-59.95
X127.15Y-71.65
X127.15Y-73.5
X127.2Y-61.5
X127.265Y-51.165
X127.3Y-58.5
X127.3Y-87.55
X127.5Y-84.3
X127.5Y-97.8
X128.Y-78.1
X128.2Y-75.85
X128.535Y-51.165
X128.65Y-75.1
X128.7Y-72.95
X129.15Y-84.3
X129.15Y-86.55
X129.15Y-89.6
X129.2Y-95.75
X129.2Y-97.8
X129.3Y-55.85
X129.3Y-59.2
X129.5Y-75.8
X129.55Y-72.7
X129.8Y-51.15
X130.Y-60.1
X130.05Y-88.
X130.21Y-94.49
X130.4Y-60.9
X130.7Y-74.
X130.74Y-85.94
X130.8Y-56.7
X130.85Y-79.7
X131.1Y-89.5
X131.2Y-75.8
X131.3Y-74.7
X131.35Y-95.3
X131.5Y-73.5
X131.8Y-96.6
X131.95Y-59.85
X132.4Y-97.4
X132.5Y-73.5
X132.5Y-91.4
X133.3Y-92.
X133.4Y-52.45
X134.Y-84.2
X134.3Y-90.7
X134.45Y-56.8
X134.6Y-57.85
X134.975Y-88.775
X135.65Y-52.25
X135.65Y-70.45
X135.7Y-64.5
X135.85Y-72.05
X136.4Y-85.85
X136.6Y-66.8
X136.6Y-69.
X136.6Y-96.6
X136.85Y-62.35
X136.9Y-88.8
X137.55Y-72.05
X137.6Y-59.8
X137.6Y-60.8
X137.7Y-68.25
X137.75Y-53.2
X137.75Y-56.
X137.8Y-58.8
X137.85Y-83.55
X137.9Y-93.6
X138.8Y-56.7
X139.05Y-83.95
X139.2Y-94.3
X139.3Y-96.6
X139.6Y-68.9
X140.1Y-86.25
X140.495Y-92.695
X140.9Y-57.65
X140.9Y-59.9
X141.Y-74.5
X141.25Y-71.5
X141.4Y-97.8
X141.45Y-76.05
X141.65Y-52.15
X141.65Y-87.
X141.8Y-70.7
X142.1Y-88.8
X142.4Y-64.2
X142.55Y-55.7
X142.6Y-66.
X142.85Y-69.15
X142.85Y-73.75
X142.85Y-78.35
X142.95Y-59.85
X143.3Y-96.1
X143.39Y-57.62
X143.6Y-61.6
X143.8Y-85.1
X144.Y-60.
X144.1Y-97.8
X144.25Y-65.8
X144.4Y-94.6
X144.45Y-54.55
X144.5Y-57.6
X144.7Y-61.65
X145.5Y-93.2
X145.65Y-66.85
X145.65Y-71.45
X145.65Y-76.05
X145.7Y-57.6
X146.4Y-97.6
X147.3Y-88.8
X147.3Y-97.75
X147.9Y-73.8
X147.9Y-69.4
X148.Y-54.5
X148.1Y-75.65
X148.1Y-78.5
X148.15Y-71.7
X148.55Y-51.95
X148.65Y-58.45
X148.65Y-62.55
X148.8Y-83.95
X149.75Y-60.5
X150.Y-67.75
X150.Y-71.75
X150.Y-75.75
X150.5Y-56.55
X151.Y-91.
X156.2Y-58.2
X156.2Y-63.2
X156.2Y-68.25
X156.2Y-73.25
X156.25Y-53.2
X156.25Y-78.2
X158.7Y-55.7
X158.7Y-70.75
X158.7Y-75.75
X158.75Y-60.7
X158.75Y-65.7
T2
X128.6Y-63.
X128.6Y-65.5
X128.6Y-68.
X131.1Y-63.
X131.1Y-65.5
X131.1Y-68.
X133.6Y-63.
X133.6Y-65.5
X133.6Y-68.
T4
X132.432Y-53.732
X135.968Y-57.268
T5
X151.9Y-52.75
X151.9Y-54.75
X151.9Y-59.5
X151.9Y-61.5
X151.9Y-63.5
X151.9Y-68.25
X151.9Y-70.25
X151.9Y-72.25
X151.9Y-74.25
X151.9Y-76.25
X151.9Y-78.25
T6
X149.3Y-87.5
X149.3Y-90.
X149.3Y-92.
X149.3Y-94.5
T8
X134.66Y-96.605
X138.589Y-69.36
X139.605Y-74.44
X139.74Y-95.589
X139.74Y-97.621
X140.621Y-69.36
T9
X154.Y-51.25
X154.Y-56.25
X154.Y-58.
X154.Y-65.
X154.Y-66.75
X154.Y-79.75
T10
X151.4Y-88.75
X151.4Y-93.25
T11
X108.Y-65.5
X139.9Y-65.5
T3
X131.975Y-78.65G85X131.975Y-79.35
G05
X140.325Y-78.65G85X140.325Y-79.35
G05
T4
X133.925Y-75.9G85X133.925Y-76.1
G05
X138.375Y-75.9G85X138.375Y-76.1
G05
T7
X150.625Y-85.3G85X152.175Y-85.3
G05
X150.625Y-96.7G85X152.175Y-96.7
G05
T0
M30
